<svg width="88" height="88" viewBox="0 0 88 88" xmlns="http://www.w3.org/2000/svg"><title>icon_cards</title><defs><linearGradient x1="50%" y1="0%" x2="50%" y2="306.201%" id="a"><stop stop-color="#3DC4F7" offset="0%"/><stop stop-color="#229FEF" offset="100%"/></linearGradient><linearGradient x1="50%" y1="-540.274%" x2="50%" y2="1997.649%" id="b"><stop stop-color="#3DC4F7" offset="0%"/><stop stop-color="#229FEF" offset="100%"/></linearGradient><linearGradient x1="50%" y1="-87.253%" x2="50%" y2="100%" id="c"><stop stop-color="#3DC4F7" offset="0%"/><stop stop-color="#229FEF" offset="100%"/></linearGradient><linearGradient x1="50%" y1="-527.288%" x2="50%" y2="261.247%" id="d"><stop stop-color="#3DC4F7" offset="0%"/><stop stop-color="#229FEF" offset="100%"/></linearGradient><linearGradient x1="50%" y1="0%" x2="50%" y2="100%" id="e"><stop stop-color="#3DC4F7" offset="0%"/><stop stop-color="#229FEF" offset="100%"/></linearGradient><linearGradient x1="50%" y1="-152.178%" x2="50%" y2="403.344%" id="f"><stop stop-color="#3DC4F7" offset="0%"/><stop stop-color="#229FEF" offset="100%"/></linearGradient></defs><g fill="none" fill-rule="evenodd"><path d="M-4-4h96v96H-4z"/><g transform="translate(1 7)" fill="#E6F7FF"><path d="M0 0h36v7H0z"/><circle cx="73" cy="25" r="6"/><circle cx="27.5" cy="57.5" r="3.5"/></g><path d="M73.68 3.55c0-1.96 1.577-3.55 3.522-3.55 1.946 0 3.523 1.59 3.523 3.55 0 1.962-1.577 3.552-3.523 3.552-1.945 0-3.521-1.59-3.521-3.551" fill="#A3E0FF"/><path d="M54.803 2.342a2.59 2.59 0 0 1 2.583 2.602 2.592 2.592 0 0 1-2.583 2.604c-1.424 0-2.581-1.166-2.581-2.604a2.592 2.592 0 0 1 2.581-2.602" fill="#C2EBFF"/><path d="M.768 53.268c0-1.968 1.583-3.563 3.534-3.563 1.952 0 3.535 1.595 3.535 3.563 0 1.968-1.583 3.563-3.535 3.563-1.951 0-3.534-1.595-3.534-3.563" fill="#75D1FF"/><path d="M66.063 13.553c0 .568-.455 1.028-1.02 1.028-.563 0-1.02-.46-1.02-1.028 0-.567.457-1.027 1.02-1.027.565 0 1.02.46 1.02 1.027" fill="#6CF"/><path d="M15.011 41.522c0 .85-.683 1.538-1.526 1.538a1.532 1.532 0 0 1-1.526-1.538c0-.85.683-1.539 1.526-1.539s1.526.688 1.526 1.54" fill="#A3E0FF"/><path d="M34.188 6.339H3.428V4.944c0-.768.626-1.393 1.395-1.393h27.97c.77 0 1.395.625 1.395 1.393v1.395zm-30.76 9.644h30.76v7.609c0 .768-.625 1.394-1.394 1.394H4.823a1.396 1.396 0 0 1-1.394-1.394v-7.61zm0-3.428h30.76V9.767H3.428v2.788zM32.795.123H4.823A4.828 4.828 0 0 0 0 4.943v18.649a4.828 4.828 0 0 0 4.823 4.822h27.97a4.827 4.827 0 0 0 4.823-4.822V4.944A4.827 4.827 0 0 0 32.794.123z" fill="url(#a)"/><path fill="url(#b)" d="M6.216 22.199h6.536V18.77H6.216zM15.541 22.199h4.982V18.77h-4.982z"/><path d="M39.44 71.374c-.932 0-1.677.745-1.677 1.66 0 .915.745 1.66 1.66 1.66h.017c.915 0 1.66-.745 1.66-1.66 0-.915-.745-1.66-1.66-1.66" fill="#27A7F0"/><path d="M80.792 51.099c-.915 0-1.66.745-1.66 1.66v19.365L61.768 83.207V60.65c0-.916-.746-1.66-1.66-1.66-.916 0-1.66.744-1.66 1.66v22.547l-13.834-8.83a1.655 1.655 0 0 0-2.293.506 1.663 1.663 0 0 0 .507 2.293l16.386 10.46c.267.17.576.26.893.26h.017c.317 0 .627-.09.894-.26l20.667-13.193c.48-.307.767-.83.767-1.399V52.758c0-.915-.745-1.66-1.66-1.66" fill="url(#c)"/><path d="M61.282 56.476c.31-.308.486-.735.486-1.172 0-.437-.176-.865-.486-1.174a1.67 1.67 0 0 0-1.174-.487c-.438 0-.865.178-1.175.487a1.675 1.675 0 0 0-.486 1.174 1.663 1.663 0 0 0 1.66 1.66c.44 0 .867-.177 1.175-.488" fill="#2EB0F2"/><path d="M28.596 66.293a2.15 2.15 0 0 1-2.15-2.148c0-1.186.964-2.15 2.15-2.15a2.15 2.15 0 0 1 2.148 2.15 2.15 2.15 0 0 1-2.148 2.148m0-7.618a5.475 5.475 0 0 0-5.47 5.47 5.475 5.475 0 0 0 5.47 5.468 5.474 5.474 0 0 0 5.469-5.468 5.475 5.475 0 0 0-5.47-5.47" fill="url(#d)"/><path d="M34.797 69.341l-6.201 7.942-6.3-8.075c-1.227-1.508-1.88-3.34-1.88-5.215.003-4.52 3.672-8.187 8.18-8.187 4.51 0 8.18 3.67 8.18 8.181a8.187 8.187 0 0 1-1.87 5.205c-.04.05-.076.1-.108.15zm24.472-37.67c0 3.206 1.11 6.341 3.123 8.828l3.093 3.965-5.37 3.428-19.782-12.628a1.647 1.647 0 0 0-.893-.26 1.67 1.67 0 0 0-.91.26L17.86 48.457c-.48.306-.767.83-.767 1.4v36.37a1.661 1.661 0 0 0 2.555 1.4l4.913-3.127c.374-.239.633-.609.73-1.042a1.644 1.644 0 0 0-.223-1.251 1.652 1.652 0 0 0-1.4-.768c-.317 0-.625.09-.893.261l-2.36 1.496v-11l6.872 8.808c.314.406.793.638 1.308.638a1.65 1.65 0 0 0 1.308-.638l7.597-9.732c1.69-2.098 2.596-4.664 2.596-7.285 0-6.342-5.16-11.5-11.502-11.5-3.081 0-6.02 1.24-8.18 3.427v-5.148L37.78 39.683v12.962c0 .916.745 1.661 1.66 1.661.916 0 1.66-.745 1.66-1.66V39.693l18.117 11.561c.264.171.575.261.892.261.334 0 .643-.09.91-.26l6.52-4.162L72 52.815a1.65 1.65 0 0 0 1.308.64 1.65 1.65 0 0 0 1.31-.64l3.942-5.052a1.662 1.662 0 0 0-1.307-2.682c-.516 0-.994.232-1.31.638l-2.635 3.376L65.043 38.5c-1.6-1.967-2.454-4.37-2.454-6.829 0-5.912 4.81-10.72 10.72-10.72 5.912 0 10.72 4.808 10.72 10.72 0 2.486-.87 4.91-2.45 6.822a1.67 1.67 0 0 0-.223 1.765c.273.58.863.953 1.503.953.526 0 1.026-.252 1.339-.674a14.06 14.06 0 0 0 3.152-8.866c0-7.743-6.298-14.04-14.04-14.04-7.743 0-14.041 6.297-14.041 14.04z" fill="url(#e)"/><path d="M79.84 45.088c.438 0 .866-.177 1.175-.486.308-.31.485-.737.485-1.174a1.67 1.67 0 0 0-.486-1.174 1.667 1.667 0 0 0-1.174-.486c-.437 0-.865.176-1.174.486a1.67 1.67 0 0 0-.486 1.174c0 .437.177.865.486 1.174.308.309.736.486 1.174.486" fill="#33B7F4"/><path d="M73.31 36.738a4.875 4.875 0 0 1-4.87-4.869A4.875 4.875 0 0 1 73.31 27a4.875 4.875 0 0 1 4.87 4.87 4.875 4.875 0 0 1-4.87 4.87m8.19-4.87c0-4.517-3.673-8.19-8.19-8.19-4.517 0-8.19 3.673-8.19 8.19 0 4.516 3.673 8.19 8.19 8.19 4.517 0 8.19-3.674 8.19-8.19" fill="url(#f)"/></g></svg>