<svg width="12" height="16" viewBox="0 0 12 16" xmlns="http://www.w3.org/2000/svg"><title>Shape</title><path d="M10 0H2c-.844 0-2 1-2 2v13c0 .5.5 1 1 1h3.916V11.86c0-.126.097-.243.227-.243h1.68c.132 0 .225.117.225.243V16H11c.5 0 1-.5 1-1V2c0-1-1-2-2-2zM4.012 13.615a.233.233 0 0 1-.237.228H2.08a.233.233 0 0 1-.237-.228v-1.63c0-.126.106-.229.237-.229h1.694c.13 0 .237.102.237.229v1.63zm0-2.957a.233.233 0 0 1-.237.229H2.08a.233.233 0 0 1-.237-.229v-1.63c0-.126.106-.228.237-.228h1.694c.13 0 .237.102.237.228v1.63zm0-2.99a.233.233 0 0 1-.237.228H2.08a.233.233 0 0 1-.237-.229v-1.63c0-.126.106-.228.237-.228h1.694c.13 0 .237.102.237.228v1.63zm0-2.957a.233.233 0 0 1-.237.228H2.08a.233.233 0 0 1-.237-.228V3.08c0-.126.106-.229.237-.229h1.694c.13 0 .237.102.237.229v1.63zm2.835 6.176H5.152a.233.233 0 0 1-.237-.229v-1.63c0-.126.107-.228.237-.228h1.695c.13 0 .237.102.237.228v1.63a.233.233 0 0 1-.237.229zm0-2.991H5.152a.233.233 0 0 1-.237-.229v-1.63c0-.126.107-.228.237-.228h1.695c.13 0 .237.102.237.228v1.63a.233.233 0 0 1-.237.229zm0-2.957H5.152a.233.233 0 0 1-.237-.228V3.08c0-.126.107-.229.237-.229h1.695c.13 0 .237.102.237.229v1.63a.233.233 0 0 1-.237.228zm3.309 8.676a.233.233 0 0 1-.237.228H8.225a.233.233 0 0 1-.238-.228v-1.63c0-.126.107-.229.238-.229h1.694c.13 0 .237.102.237.229v1.63zm0-2.957a.233.233 0 0 1-.237.229H8.225a.233.233 0 0 1-.238-.229v-1.63c0-.126.107-.228.238-.228h1.694c.13 0 .237.102.237.228v1.63zm0-2.99a.233.233 0 0 1-.237.228H8.225a.233.233 0 0 1-.238-.229v-1.63c0-.126.107-.228.238-.228h1.694c.13 0 .237.102.237.228v1.63zm0-2.957a.233.233 0 0 1-.237.228H8.225a.233.233 0 0 1-.238-.228V3.08c0-.126.107-.229.238-.229h1.694c.13 0 .237.102.237.229v1.63z" fill-rule="nonzero" fill="#6B81B3" fill-opacity=".5"/></svg>