<svg width="16" height="14" viewBox="0 0 16 14" xmlns="http://www.w3.org/2000/svg"><title>airfair</title><defs><linearGradient x1="50%" y1="0%" x2="50%" y2="100%" id="a"><stop stop-color="#3DC4F7" offset="0%"/><stop stop-color="#229FEF" offset="100%"/></linearGradient></defs><g fill="none" fill-rule="evenodd"><path d="M0-1h16v16H0z"/><path d="M15.474 8.783l-1.483-.939V6.393a.645.645 0 0 0-.636-.644h-.44a.65.65 0 0 0-.64.644v.374L9.398 4.945c.025-.58.04-1.06.037-1.384C9.431 3.154 8.921 1 7.965 1 7.09 1 6.537 3.123 6.533 3.52c-.003.332.012.836.04 1.448l-2.848 1.8v-.375a.64.64 0 0 0-.63-.644h-.44a.653.653 0 0 0-.645.644v1.451l-1.483.939c-.329.208-.527.57-.527.958v1.016a.51.51 0 0 0 .661.479l6.175-1.951c.068.97.138 1.915.199 2.718L4.87 13.714a.762.762 0 0 0-.288.602v.405c0 .093.043.18.119.23a.277.277 0 0 0 .257.03l2.41-.956c.15.16.36.255.594.255h.047a.807.807 0 0 0 .594-.255l2.411.954a.272.272 0 0 0 .375-.258v-.405a.764.764 0 0 0-.289-.602l-2.164-1.71c.062-.806.133-1.756.2-2.73l6.208 1.963a.503.503 0 0 0 .655-.48V9.743c0-.39-.198-.751-.526-.959z" fill="url(#a)" fill-rule="nonzero" transform="translate(0 -1)"/></g></svg>