<svg width="15" height="13" viewBox="0 0 15 13" xmlns="http://www.w3.org/2000/svg"><title>clothing</title><g fill="none" fill-rule="evenodd"><path d="M-1-2h16v16H-1z"/><path d="M10.741 13H4.259a.736.736 0 0 1-.747-.724v-6.46l-.418.405a.76.76 0 0 1-1.057 0L.218 4.458a.709.709 0 0 1 0-1.024L3.543.212a.769.769 0 0 1 .622-.206A.811.811 0 0 1 4.259 0h.924c.253 0 .49.125.627.33.295.44.958.725 1.69.725.733 0 1.396-.284 1.69-.724A.753.753 0 0 1 9.818 0h.924c.031 0 .063.002.094.006a.761.761 0 0 1 .622.206l3.323 3.222a.709.709 0 0 1 0 1.024L12.964 6.22a.76.76 0 0 1-.528.212.758.758 0 0 1-.53-.212l-.417-.405v6.46c0 .4-.335.724-.748.724z" fill="#ADBAD8" fill-rule="nonzero"/></g></svg>