<svg width="16" height="13" viewBox="0 0 16 13" xmlns="http://www.w3.org/2000/svg"><title>currency_value</title><defs><linearGradient x1="50%" y1="0%" x2="50%" y2="100%" id="a"><stop stop-color="#3DC4F7" offset="0%"/><stop stop-color="#229FEF" offset="100%"/></linearGradient></defs><g fill="none" fill-rule="evenodd"><path d="M0-1h16v16H0z"/><g fill="url(#a)" fill-rule="nonzero"><path d="M15.133 7.442c-.466-.422-1.2-.747-2.233-1.007V4.518c.5.13 1.033.39 1.633.812l1.134-1.593c-.934-.617-1.834-.974-2.767-1.105v-.715h-1.467v.65c-.833.098-1.533.39-2.033.878-.533.488-.767 1.137-.767 1.885 0 .747.234 1.332.667 1.755.467.39 1.167.715 2.133.975v2.015c-.6-.162-1.233-.552-1.966-1.17l-1.3 1.527c1 .845 2.066 1.365 3.266 1.528v.975H12.9v-.91c.9-.098 1.6-.39 2.133-.91.534-.488.8-1.138.8-1.885 0-.78-.233-1.365-.7-1.788zm-3.7-1.43c-.4-.194-.6-.454-.6-.812 0-.357.2-.618.6-.748v1.56zM12.9 10.14V8.482c.267.098.467.228.567.358.1.13.166.293.166.455-.033.422-.266.715-.733.845zM7.733 1.853L4.867.13a.674.674 0 0 0-.934.227c-.2.326-.1.716.234.91L5.3 1.95C2.367 2.405.167 4.647.167 7.378c0 3.022 2.766 5.492 6.166 5.492A.66.66 0 0 0 7 12.22a.66.66 0 0 0-.667-.65c-2.633 0-4.8-1.885-4.8-4.16 0-2.178 1.934-3.965 4.4-4.16L4.9 4.615a.663.663 0 0 0 .133.942c.134.098.267.13.4.13.2 0 .4-.097.534-.26L7.9 2.894c.1-.163.167-.325.133-.52a.573.573 0 0 0-.3-.52z"/></g></g></svg>