<svg width="16" height="13" viewBox="0 0 16 13" xmlns="http://www.w3.org/2000/svg"><title>currency_value</title><defs><linearGradient x1="50%" y1="0%" x2="50%" y2="100%" id="a"><stop stop-color="#3DC4F7" offset="0%"/><stop stop-color="#229FEF" offset="100%"/></linearGradient></defs><g fill="none" fill-rule="evenodd"><path d="M0-2h16v16H0z"/><g fill="url(#a)" fill-rule="nonzero"><path d="M15.27 7.018c-.487-.46-1.253-.814-2.33-1.098V3.832c.52.141 1.077.425 1.703.885l1.183-1.735c-.974-.672-1.913-1.062-2.887-1.203V1h-1.53v.708c-.87.106-1.6.425-2.122.956-.557.53-.8 1.239-.8 2.053 0 .814.243 1.451.696 1.911.487.425 1.217.78 2.226 1.062v2.195c-.626-.177-1.287-.602-2.052-1.274L8 10.274c1.043.92 2.157 1.487 3.409 1.664V13h1.53v-.991c.94-.106 1.67-.425 2.226-.991.557-.531.835-1.24.835-2.053 0-.85-.243-1.487-.73-1.947zM11.409 5.46c-.418-.212-.626-.495-.626-.885s.208-.672.626-.814v1.7zm1.53 4.496V8.15c.278.107.487.248.591.39a.855.855 0 0 1 .174.495c-.034.46-.278.78-.765.92zM7.733 1.853L4.867.13a.674.674 0 0 0-.934.227c-.2.326-.1.716.234.91L5.3 1.95C2.367 2.405.167 4.647.167 7.378c0 3.022 2.766 5.492 6.166 5.492A.66.66 0 0 0 7 12.22a.66.66 0 0 0-.667-.65c-2.633 0-4.8-1.885-4.8-4.16 0-2.178 1.934-3.965 4.4-4.16L4.9 4.615a.663.663 0 0 0 .133.942c.134.098.267.13.4.13.2 0 .4-.097.534-.26L7.9 2.894c.1-.163.167-.325.133-.52a.573.573 0 0 0-.3-.52z"/></g></g></svg>