<svg width="16" height="12" viewBox="0 0 16 12" xmlns="http://www.w3.org/2000/svg"><title>daily_expenses</title><defs><linearGradient x1="50%" y1="0%" x2="50%" y2="100%" id="a"><stop stop-color="#3DC4F7" offset="0%"/><stop stop-color="#229FEF" offset="100%"/></linearGradient></defs><g fill="none" fill-rule="evenodd"><path d="M0-2h16v16H0z"/><g fill="url(#a)" fill-rule="nonzero"><path d="M10.04 9c-1.65 0-3-1.35-3-3s1.35-3 3-3H14c.35 0 .69.06 1 .18V2a2 2 0 0 0-2-2H1C.45 0 0 .45 0 1v10c0 .55.45 1 1 1h12a2 2 0 0 0 2-2V8.82c-.31.12-.65.18-1 .18h-3.96z"/><path d="M14 4h-3.96c-1.1 0-2 .9-2 2 0 1.041.848 2 2 2H14a2 2 0 1 0 0-4zm-2 3c-.55 0-1-.45-1-1s.45-1 1-1c.56 0 1 .45 1 1s-.44 1-1 1z"/></g></g></svg>