<svg width="14" height="14" viewBox="0 0 14 14" xmlns="http://www.w3.org/2000/svg"><title>Shape</title><path d="M9.544 8.213l-.53.542-1.434-1.47.86-.88c.805.51 1.87.42 2.584-.273L14 3.086l-.692-.709-2.283 2.34-.468-.48 2.283-2.34-.692-.708-2.283 2.34-.468-.48L11.68.708 10.988 0 8.013 3.048h.001a2.223 2.223 0 0 0-.267 2.648l-.327.336-3.325-3.407A4.275 4.275 0 0 0 .39 1.372c-.372.056-.522.522-.257.794l5.53 5.664-.916.939-.53-.543-3.523 3.61a1.29 1.29 0 0 0 0 1.793 1.217 1.217 0 0 0 1.751 0l3.523-3.61-.53-.542 1.449-1.483 1.435 1.47-.53.542 3.524 3.61a1.217 1.217 0 0 0 1.75 0 1.29 1.29 0 0 0 0-1.794L9.544 8.213z" fill-rule="nonzero" fill="#6B81B3" fill-opacity=".5"/></svg>