<svg width="88" height="91" viewBox="0 0 88 91" xmlns="http://www.w3.org/2000/svg"><defs><linearGradient x1="50%" y1="0%" x2="50%" y2="100%" id="a"><stop stop-color="#3DC4F7" offset="0%"/><stop stop-color="#229FEF" offset="100%"/></linearGradient></defs><g fill="none" fill-rule="evenodd"><path d="M-3-3h96v96H-3z"/><path d="M79.54 3.687c0 1.962-1.577 3.551-3.523 3.551-1.945 0-3.522-1.59-3.522-3.55 0-1.962 1.577-3.551 3.522-3.551 1.946 0 3.522 1.59 3.522 3.55" fill="#6CF" opacity=".6"/><path d="M42.837 31.031c8.883-.18 16.228 6.937 16.404 15.893.178 8.953-6.88 16.358-15.762 16.537-8.883.178-16.227-6.936-16.405-15.892-.176-8.956 6.88-16.36 15.763-16.538z" fill="#E6F7FF"/><path d="M73.428 20.395c0 .569-.456 1.028-1.02 1.028-.563 0-1.02-.46-1.02-1.028 0-.568.457-1.027 1.02-1.027.564 0 1.02.46 1.02 1.027" fill="#6CF"/><path d="M87.211 18.987c0 1.01-.814 1.83-1.816 1.83a1.824 1.824 0 0 1-1.816-1.83c0-1.01.814-1.831 1.816-1.831 1.002 0 1.816.82 1.816 1.83" fill="#6CF" opacity=".4"/><path d="M2.584 8.243A2.591 2.591 0 0 1 0 5.641a2.593 2.593 0 0 1 2.584-2.604c1.424 0 2.58 1.166 2.58 2.604a2.592 2.592 0 0 1-2.58 2.602zM23.376 11.364c0 .85-.683 1.538-1.526 1.538a1.531 1.531 0 0 1-1.526-1.538c0-.85.683-1.538 1.526-1.538s1.526.688 1.526 1.538" fill="#6CF" opacity=".6"/><path d="M9.65 26.16c0 1.967-1.583 3.563-3.534 3.563-1.952 0-3.535-1.596-3.535-3.564 0-1.967 1.583-3.563 3.535-3.563 1.951 0 3.534 1.596 3.534 3.563" fill="#6CF" opacity=".9"/><path d="M43.158 72.834c-14.017 0-25.38-11.456-25.38-25.588 0-14.133 11.363-25.588 25.38-25.588 14.017-.002 25.38 11.455 25.38 25.588 0 14.132-11.363 25.588-25.38 25.588m0-59.27c-18.452 0-33.41 15.08-33.408 33.682-.002 18.603 14.956 33.68 33.408 33.68 18.451 0 33.407-15.077 33.41-33.68 0-18.602-14.959-33.682-33.41-33.682M66.638 80.22l7.431 6.28 7.431-7.924-5.877-7.425z" fill="#E6F7FF"/><path d="M75.362 87.41l1.474 1.483a1 1 0 0 1 0 1.409l-.838.846a1 1 0 0 1-1.42 0l-9.488-9.55a1 1 0 0 1-.001-1.41l3.73-3.764-3.098-3.192c-5.985 5.428-13.898 8.735-22.563 8.735-18.622 0-33.773-15.275-33.773-34.049 0-7.33 2.276-14.312 6.58-20.195l2.557 1.903c-3.899 5.329-5.959 11.654-5.959 18.292 0 1.076.055 2.139.162 3.187h3.535l6.29-6.858 2.945 2.97a17.764 17.764 0 0 1 4.917-11.645c3.272-3.435 7.673-5.377 12.394-5.47a17.544 17.544 0 0 1 12.6 4.966 17.745 17.745 0 0 1 4.908 8.534l10.503-8.86c-4.91-10.434-15.462-17.667-27.659-17.667-2.062 0-4.123.205-6.124.618l-.631-3.143a33.85 33.85 0 0 1 6.755-.68c18.622 0 33.771 15.274 33.771 34.048 0 8.85-3.366 16.922-8.875 22.983l3.184 3.081 3.674-3.708a1 1 0 0 1 1.42 0l9.487 9.55a1 1 0 0 1 .001 1.409l-.837.845a1 1 0 0 1-1.42.002l-1.464-1.473-6.737 6.803zm-2.25-2.265l6.737-6.803-3.515-3.538a1 1 0 0 0-1.42 0l-5.33 5.38a1 1 0 0 0 0 1.409l3.528 3.552zM13.224 54.309C16.15 68.261 28.46 78.763 43.158 78.763c7.801 0 14.93-2.96 20.34-7.823l-.146-.15 2.246-2.266.164.158a30.867 30.867 0 0 0 7.989-20.764c0-3.522-.588-6.907-1.671-10.062L60.826 47.35l.005.213c.093 4.757-1.657 9.27-4.929 12.7-3.27 3.436-7.67 5.378-12.392 5.472-.12.002-.242.004-.364.004-4.586 0-8.917-1.76-12.236-4.973a17.736 17.736 0 0 1-4.9-8.5l-3.372-3.399-4.988 5.441h-4.426zm31.524 1.353v3.475h-3.179v-3.475h-4.854v-3.204h4.854V49.52c-2.525-.036-4.568-2.118-4.568-4.672 0-2.556 2.043-4.636 4.568-4.672v-3.475h3.179v3.475H49.6v3.204h-4.853v2.936h.168c2.555 0 4.634 2.095 4.634 4.672 0 2.579-2.079 4.674-4.634 4.674h-.168zm0-3.204h.168c.803 0 1.455-.66 1.455-1.47 0-.808-.652-1.468-1.455-1.468h-.168v2.938zm-3.179-9.076a1.464 1.464 0 0 0-1.39 1.466c0 .785.618 1.431 1.39 1.466v-2.932zm1.3-10.094c-8.015.16-14.382 6.841-14.223 14.921.16 8.08 6.787 14.5 14.802 14.34 8.013-.163 14.381-6.844 14.22-14.922-.158-8.08-6.785-14.5-14.8-14.339zM26.136 22.286l-1.772-2.662a33.587 33.587 0 0 1 8.341-4.091l.983 3.046a30.447 30.447 0 0 0-7.552 3.707zm-5.611 4.88l-2.352-2.158a34.547 34.547 0 0 1 3.163-3.077l2.056 2.446a31.105 31.105 0 0 0-2.867 2.788z" fill="url(#a)" transform="translate(0 -.672)"/></g></svg>