<svg width="16" height="10" viewBox="0 0 16 10" xmlns="http://www.w3.org/2000/svg"><title>Combined Shape</title><defs><linearGradient x1="50%" y1="0%" x2="50%" y2="100%" id="a"><stop stop-color="#3DC4F7" offset="0%"/><stop stop-color="#229FEF" offset="100%"/></linearGradient></defs><path d="M.024 8.365A5.657 5.657 0 0 0 0 8.888v1.633A2.479 2.479 0 0 0 2.479 13H13.52A2.479 2.479 0 0 0 16 10.521v-1.19a.639.639 0 0 0-.31-.55c-.657.695-1.438 1.057-2.315 1.057a2.15 2.15 0 0 1-.912-.193 3.108 3.108 0 0 1-.61-.381l-.073-.056c-.397-.297-.593-.384-.98-.384-.21 0-.364.033-.501.096-.111.052-.2.112-.397.267l-.018.013c-.274.215-.427.319-.657.424-.309.142-.65.214-1.05.214-.396 0-.74-.07-1.057-.21-.233-.1-.386-.197-.69-.412-.233-.165-.333-.228-.464-.285a1.367 1.367 0 0 0-.566-.107c-.405 0-.593.084-.978.38l-.06.045c-.248.192-.402.294-.613.391-.284.131-.59.198-.94.198-.913 0-1.75-.362-2.488-1.063a.644.644 0 0 0-.14 1.003c.772.791 1.657 1.201 2.628 1.201.35 0 .656-.067.94-.197.211-.097.365-.2.614-.391.01-.009.05-.04.06-.046.384-.296.572-.38.977-.38.228 0 .404.036.566.107.131.057.231.12.465.286.303.215.456.31.69.412.317.138.66.21 1.056.21.4 0 .741-.073 1.05-.215.23-.105.383-.209.657-.423l.018-.014c.197-.154.286-.215.397-.266.137-.064.291-.097.5-.097.388 0 .584.087.98.385.01.006.06.044.075.055.246.184.402.286.61.38.278.128.576.194.911.194.949 0 1.785-.423 2.473-1.232A.64.64 0 0 0 16 9.33v-.49c0-.164-.007-.326-.021-.487a.648.648 0 0 0-.064-.484c-.023-.131-.05-.26-.082-.388a4.464 4.464 0 0 1-.143.159.612.612 0 0 0-.78.133c-.46.543-.961.796-1.535.796-.286 0-.443-.071-.788-.33l-.074-.055c-.272-.203-.442-.314-.675-.418a2.496 2.496 0 0 0-1.038-.211c-.384 0-.714.07-1.014.21-.222.102-.37.203-.638.413l-.018.014c-.202.158-.293.22-.41.274a1.256 1.256 0 0 1-.543.103c-.23 0-.407-.037-.57-.108-.132-.057-.232-.12-.467-.286-.302-.215-.455-.31-.687-.412A2.58 2.58 0 0 0 5.4 7.556c-.397 0-.74.071-1.053.211-.235.106-.402.217-.67.423l-.06.046c-.345.264-.496.334-.808.334-.626 0-1.2-.266-1.749-.828a.611.611 0 0 0-.739-.108 5.127 5.127 0 0 1-.145-.143c-.03.118-.057.238-.08.36a.647.647 0 0 0-.072.514zm.548-1.949a5.62 5.62 0 0 1 3.88-3.026c.298-.063.592-.119.881-.167v2.05H6.4V3.077c.362-.038.718-.063 1.067-.076v2.272h1.066V3c.35.012.705.037 1.067.073v2.2h1.067V3.211c.275.043.554.093.837.15a5.588 5.588 0 0 1 3.944 3.057.613.613 0 0 0-.537.215c-.462.542-.962.796-1.536.796-.286 0-.443-.072-.788-.33l-.074-.055c-.272-.204-.442-.314-.675-.418a2.496 2.496 0 0 0-1.038-.212c-.384 0-.714.071-1.014.21-.222.103-.37.204-.638.414l-.018.014c-.202.158-.293.22-.41.274a1.256 1.256 0 0 1-.543.103c-.23 0-.407-.037-.57-.108-.132-.057-.232-.12-.467-.286-.302-.215-.455-.31-.687-.412A2.58 2.58 0 0 0 5.4 6.414c-.397 0-.74.072-1.053.212-.235.105-.402.216-.67.423l-.06.045c-.345.265-.496.335-.808.335-.626 0-1.2-.266-1.749-.828a.612.612 0 0 0-.488-.185z" transform="translate(0 -3)" fill="url(#a)" fill-rule="evenodd"/></svg>