<svg width="16" height="16" viewBox="0 0 16 16" xmlns="http://www.w3.org/2000/svg"><title>Shape</title><path d="M7.893 0a8 8 0 1 0 .215 16 8 8 0 0 0-.215-16zm.056 12.301h-.035c-.545-.018-.929-.443-.914-1.012.016-.56.41-.966.936-.966h.032c.56.018.94.44.924 1.025-.016.561-.403.953-.943.953zm2.255-5.324c-.129.193-.41.433-.765.726l-.391.287c-.215.176-.344.343-.393.507-.038.129-.057.163-.06.425l-.001.066H7.1l.004-.133c.019-.55.031-.875.247-1.142.337-.42 1.082-.929 1.114-.95.106-.086.196-.183.263-.286.157-.23.226-.41.226-.587a1.19 1.19 0 0 0-.205-.676c-.13-.195-.379-.294-.738-.294-.357 0-.6.12-.747.366-.15.253-.226.519-.226.79v.067H5.5l.003-.07c.04-1 .376-1.72 1-2.14.391-.266.879-.402 1.448-.402.744 0 1.373.192 1.868.57.501.383.756.957.756 1.706 0 .42-.125.813-.371 1.17z" fill-rule="nonzero" fill="#859BA6" fill-opacity=".5"/></svg>