<svg width="32" height="32" viewBox="0 0 32 32" xmlns="http://www.w3.org/2000/svg"><title>Combined Shape</title><path d="M16 32C7.163 32 0 24.837 0 16S7.163 0 16 0s16 7.163 16 16-7.163 16-16 16zm3.385-9.807a4.184 4.184 0 0 1-.601.197 2.91 2.91 0 0 1-.744.111c-.465 0-.793-.074-.983-.223-.189-.15-.283-.43-.283-.84 0-.162.029-.405.088-.722.057-.32.124-.604.197-.852l.899-3.092c.088-.284.148-.595.181-.936.033-.34.049-.577.049-.712 0-.652-.236-1.181-.706-1.59-.47-.407-1.14-.61-2.009-.61-.483 0-.994.083-1.535.25a23.14 23.14 0 0 0-1.696.6L12 14.73c.176-.064.386-.132.632-.202.244-.07.484-.107.717-.107.477 0 .797.079.966.235.168.156.252.433.252.829 0 .22-.027.463-.082.727-.054.267-.123.549-.203.846l-.903 3.103c-.08.327-.138.619-.175.878a5.425 5.425 0 0 0-.055.76c0 .638.243 1.164.728 1.579.485.413 1.165.621 2.04.621.569 0 1.069-.072 1.498-.217a47.6 47.6 0 0 0 1.729-.633l.24-.957zM20 9.85c0-.509-.24-.945-.72-1.307S18.222 8 17.546 8c-.678 0-1.258.18-1.742.543-.484.362-.727.798-.727 1.307 0 .51.243.945.727 1.303.485.36 1.064.54 1.742.54.676 0 1.254-.18 1.734-.54.48-.358.72-.793.72-1.303z" fill="#FFF" fill-rule="evenodd"/></svg>