<svg width="86" height="90" viewBox="0 0 86 90" xmlns="http://www.w3.org/2000/svg"><defs><linearGradient x1="50%" y1="0%" x2="50%" y2="100%" id="a"><stop stop-color="#3DC4F7" offset="0%"/><stop stop-color="#229FEF" offset="100%"/></linearGradient></defs><g fill="none" fill-rule="evenodd"><path d="M-5-4h96v96H-5z"/><path fill="#E6F7FF" d="M52.734 24.267H12.352L2.258 41.744l40.377 45.898 40.382-45.898-10.092-17.477z"/><path fill="#FFF" d="M22.449 41.744L12.352 24.269l-9.229 17.6zM42.327 41.202l-9.784-16.934-9.768 16.906zM62.985 41.744L52.5 24.86l-8.916 17.007zM83.985 41.744L73.5 24.86l-8.916 17.007z"/><path fill="#FFF" d="M42.636 41.744v42.842l19.728-42.842z"/><path fill="#FFF" d="M43.364 41.744v42.842L23.636 41.744z"/><path fill="#CCEFFF" d="M3.123 41.744v.425l38.593 43.383-20.163-43.808zM81.416 41.744v.425L42.823 85.552l20.163-43.808z"/><path d="M48.46 78.737l30.118-34.232H63.515L48.46 78.737zm11.203-34.232H44.398v34.708l15.265-34.708zm-18.47 44.772l-.172.075-.239-.541L0 42.453 11.235 23h45.58v3.525h-1.32l7.333 12.688 7.331-12.688h-3.174V23h6.86L85.08 42.453 42.538 90.807l-1.346-1.53zm-5.106-11.142l-14.79-33.63H6.501l29.586 33.63zM25.15 44.505l15.722 35.75v-35.75H25.15zm4.633-17.98H15.114l7.334 12.692 7.334-12.692zm-4.281 14.458h14.085L32.544 28.79 25.5 40.983zm24.47-14.458H35.305l7.333 12.69 7.333-12.69zM45.69 40.983h14.087l-7.044-12.19-7.043 12.19zm27.33-12.36l-7.142 12.36h14.28l-7.138-12.36zm-60.764.002L4.937 40.983h14.459l-7.14-12.358zM59 26.525V23h6v3.525h-6z" fill="url(#a)" transform="translate(0 -1)"/><g fill="#6CF"><path d="M62 16.162a1.5 1.5 0 1 1-3.001-.001 1.5 1.5 0 0 1 3.001.001" opacity=".4"/><path d="M21.975 71.446a2.288 2.288 0 0 1-4.575 0 2.288 2.288 0 0 1 4.575 0"/><path d="M6.246 74.218c0 1.725-1.4 3.121-3.123 3.121a3.12 3.12 0 1 1 0-6.241 3.121 3.121 0 0 1 3.123 3.12" opacity=".6"/><path d="M19.728 85.965a2.491 2.491 0 1 1-4.983 0 2.491 2.491 0 0 1 4.983 0" opacity=".2"/><path d="M73.678 11.568a3.15 3.15 0 1 1-6.3-.003 3.15 3.15 0 0 1 6.3.003" fill-opacity=".6"/><path d="M54.562 4.071a3.722 3.722 0 0 1-3.725 3.72 3.722 3.722 0 1 1 0-7.442 3.723 3.723 0 0 1 3.725 3.722"/></g></g></svg>