<svg width="15" height="15" viewBox="0 0 15 15" xmlns="http://www.w3.org/2000/svg"><title>lenth_of_stay</title><defs><linearGradient x1="50%" y1="0%" x2="50%" y2="100%" id="a"><stop stop-color="#3DC4F7" offset="0%"/><stop stop-color="#229FEF" offset="100%"/></linearGradient></defs><g fill="none" fill-rule="evenodd"><path d="M-1-1h16v16H-1z"/><g fill="url(#a)" fill-rule="nonzero"><path d="M5.424 8.261a.344.344 0 0 0-.347-.34H3.863a.344.344 0 0 0-.347.34v1.186c0 .188.155.34.347.34h1.214a.344.344 0 0 0 .347-.34V8.261zM8.457 8.261a.344.344 0 0 0-.348-.34H6.896a.344.344 0 0 0-.348.34v1.186c0 .188.156.34.348.34h1.213a.344.344 0 0 0 .348-.34V8.261zM11.489 8.261a.344.344 0 0 0-.347-.34H9.928a.344.344 0 0 0-.348.34v1.186c0 .188.156.34.348.34h1.214a.344.344 0 0 0 .347-.34V8.261zM5.424 11.225a.344.344 0 0 0-.347-.34H3.863a.344.344 0 0 0-.347.34v1.186c0 .188.155.34.347.34h1.214a.344.344 0 0 0 .347-.34v-1.186zM8.457 11.225a.344.344 0 0 0-.348-.34H6.896a.344.344 0 0 0-.348.34v1.186c0 .188.156.34.348.34h1.213a.344.344 0 0 0 .348-.34v-1.186zM11.489 11.225a.344.344 0 0 0-.347-.34H9.928a.344.344 0 0 0-.348.34v1.186c0 .188.156.34.348.34h1.214a.344.344 0 0 0 .347-.34v-1.186z"/><path d="M13.659 1.667V3.48c0 .818-.68 1.478-1.517 1.478h-.957c-.838 0-1.526-.66-1.526-1.478V1.66H5.346v1.818c0 .818-.689 1.478-1.526 1.478h-.957c-.837 0-1.517-.66-1.517-1.478V1.667C.614 1.69.013 2.281.013 3.008v10.616c0 .741.615 1.35 1.373 1.35h12.233c.757 0 1.373-.61 1.373-1.35V3.008c0-.727-.602-1.32-1.333-1.34zm-.445 11.296c0 .32-.266.58-.593.58H2.358a.587.587 0 0 1-.594-.58V7.48c0-.32.266-.58.594-.58h10.263c.327 0 .593.26.593.58v5.483z"/><path d="M2.86 3.986h.946c.287 0 .52-.227.52-.508V.508A.514.514 0 0 0 3.806 0H2.86a.514.514 0 0 0-.52.508v2.97c0 .28.232.508.52.508zM11.173 3.986h.946c.287 0 .52-.227.52-.508V.508A.514.514 0 0 0 12.12 0h-.946a.514.514 0 0 0-.52.508v2.97c0 .28.232.508.52.508z"/></g></g></svg>