<svg width="14" height="16" viewBox="0 0 14 16" xmlns="http://www.w3.org/2000/svg"><title>salary</title><g fill="none" fill-rule="evenodd"><path d="M-1 0h16v16H-1z"/><path d="M12.827 6.852c-.048-.798-.22-2.28-.542-3.01a6.437 6.437 0 0 0-1.445-2.058A6.308 6.308 0 0 0 8.265.268c-2.546-.769-5.337.155-6.95 2.286A6.386 6.386 0 0 0 .07 5.55 6.506 6.506 0 0 0 .366 8.66a6.472 6.472 0 0 0 2 2.879l-.01 3.674a.774.774 0 0 0 .77.78h5.211c.425 0 .77-.348.77-.779v-1.192h2.318a.726.726 0 0 0 .69-.51c.097-.304.217-.753.3-1.076.067-.26.1-.529.096-.798l-.015-1.048c0-.058.012-.091.072-.113.174-.065.733-.266 1.14-.411a.428.428 0 0 0 .237-.588c-.546-1.14-1.118-2.625-1.118-2.625zM6.84 8.908v.641a.373.373 0 0 1-.37.376h-.32a.373.373 0 0 1-.37-.376v-.583a3.353 3.353 0 0 1-1.41-.513.365.365 0 0 1-.102-.493l.33-.523a.351.351 0 0 1 .485-.113c.379.238.698.337 1.018.337.474 0 .663-.163.663-.537 0-.767-2.443-.873-2.443-2.55 0-.97.54-1.64 1.458-1.842v-.638c0-.199.16-.36.355-.36h.35c.197 0 .356.161.356.36v.618c.464.075.843.278 1.166.554.152.13.171.36.041.512l-.357.417a.353.353 0 0 1-.474.062c-.243-.173-.473-.26-.736-.26-.407 0-.606.116-.606.5 0 .728 2.443.767 2.443 2.512 0 .93-.483 1.66-1.477 1.899z" fill-opacity=".5" fill="#6B81B3" fill-rule="nonzero"/></g></svg>