<svg width="16" height="16" viewBox="0 0 16 16" xmlns="http://www.w3.org/2000/svg"><title>Shape</title><path d="M15.83 4.783a1.153 1.153 0 0 0-.76-.509L3.184 2.028 3.128 1.7a1.115 1.115 0 0 0-.553-.78 254.4 254.4 0 0 1-1.41-.812.789.789 0 0 0-1.062.258L.097.374a.644.644 0 0 0 .233.903c.438.255 1.023.593 1.378.796l1.35 7.836c.083.483.473.846.957.918v1.78a1.82 1.82 0 0 0-.91 1.564c0 1.008.846 1.829 1.886 1.829s1.886-.82 1.886-1.83c0-.444-.165-.853-.438-1.17h4.87a1.788 1.788 0 0 0-.439 1.17c0 1.01.847 1.83 1.887 1.83s1.886-.82 1.886-1.83c0-.868-.628-1.597-1.468-1.782V10.82h.42a1.15 1.15 0 0 0 1.105-.814l1.257-4.337c.087-.298.04-.62-.128-.886zm-3.09 4.619l-1.636.003V4.972l1.636.31v4.12zm-7.143.016V3.934l1.663.312v5.168l-1.663.004zM8.35 4.452l1.663.312v4.643l-1.663.004V4.452zm-3.844-.726V9.42h-.05L3.44 3.525l1.067.201zm.485 10.854a.416.416 0 0 1-.421-.409c0-.225.189-.408.421-.408.232 0 .421.183.421.408a.416.416 0 0 1-.421.409zm7.766 0a.416.416 0 0 1-.421-.409c0-.225.188-.408.42-.408.233 0 .422.183.422.408a.416.416 0 0 1-.421.409zm-1.053-3.007H5.487v-.735l6.217-.014v.75zm2.153-3.88V5.49l.606.115-.606 2.088z" fill-rule="nonzero" fill="#6B81B3" fill-opacity=".5"/></svg>