<svg width="14" height="12" viewBox="0 0 14 12" xmlns="http://www.w3.org/2000/svg"><title>Shape</title><path d="M13.35 5.165a.706.706 0 0 0-.703-.57h-.195l-.156-1.557C12.139 1.291 10.654 0 8.856 0h-3.79c-1.798 0-3.284 1.33-3.44 3.038L1.51 4.595h-.196a.706.706 0 0 0-.703.57L.024 8.43c-.078.418.039.798.312 1.14.274.303.665.493 1.056.493v.532c0 .76.625 1.405 1.407 1.405h.43a1.39 1.39 0 0 0 1.407-1.405v-.532h4.65v.532c0 .76.626 1.405 1.446 1.405h.43c.782 0 1.446-.608 1.446-1.405v-.532c.391 0 .782-.19 1.056-.493.273-.304.39-.722.312-1.14l-.625-3.265zM2.604 8.81c-.664 0-1.211-.532-1.211-1.177 0-.646.547-1.177 1.211-1.177.665 0 1.212.531 1.212 1.177 0 .645-.547 1.177-1.212 1.177zm.508-4.215l.157-1.405c.078-.95.899-1.633 1.836-1.633h3.791c.978 0 1.76.721 1.837 1.633l.157 1.405H3.11zm8.247 4.215c-.665 0-1.212-.532-1.212-1.177 0-.646.547-1.177 1.212-1.177.664 0 1.211.531 1.211 1.177 0 .645-.547 1.177-1.211 1.177z" fill-rule="nonzero" fill="#6B81B3" fill-opacity=".5"/></svg>