<?xml version="1.0" encoding="UTF-8"?>
<svg width="16px" height="14px" viewBox="0 0 16 14" version="1.1" xmlns="http://www.w3.org/2000/svg" xmlns:xlink="http://www.w3.org/1999/xlink">
    <!-- Generator: Sketch 50.2 (55047) - http://www.bohemiancoding.com/sketch -->
    <title>airfair</title>
    <desc>Created with Sketch.</desc>
    <defs>
        <linearGradient x1="50%" y1="0%" x2="50%" y2="100%" id="linearGradient-1">
            <stop stop-color="#3DC4F7" offset="0%"></stop>
            <stop stop-color="#229FEF" offset="100%"></stop>
        </linearGradient>
    </defs>
    <g id="Page-1" stroke="none" stroke-width="1" fill="none" fill-rule="evenodd">
        <g id="1440_What-is-Your-Dollar-Worth-Around-the-World" transform="translate(-578.000000, -1130.000000)">
            <g id="Content" transform="translate(110.000000, 92.000000)">
                <g id="Subheader" transform="translate(45.000000, 613.000000)">
                    <g id="airfair" transform="translate(423.000000, 424.000000)">
                        <rect id="baseline" x="0" y="0" width="16" height="16"></rect>
                        <path d="M15.4738442,8.78298954 L13.9905361,7.8443585 L13.9905361,6.39260916 C13.9905361,6.04322982 13.7043629,5.74877779 13.3553288,5.74877779 L12.9153028,5.74877779 C12.566616,5.74877779 12.274886,6.04288218 12.274886,6.39260916 L12.274886,6.76736629 L9.3975255,4.94537915 C9.42287823,4.36481846 9.43885392,3.88472607 9.43503364,3.56107218 C9.43051878,3.15363678 8.92138051,1 7.96527024,1 C7.09042761,1 6.53718255,3.123392 6.53336227,3.52005053 C6.5298893,3.8520478 6.5448231,4.35577979 6.5726069,4.96762818 L3.72546125,6.76736629 L3.72546125,6.39260916 C3.72546125,6.04322982 3.44380291,5.74877779 3.09476883,5.74877779 L2.65543738,5.74877779 C2.3057087,5.74877779 2.01015845,6.04288218 2.01015845,6.39260916 L2.01015845,7.8443585 L0.526850445,8.78298954 C0.197959627,8.99053129 0,9.35242571 0,9.74143613 L0,10.7565482 C0,10.9168108 0.0816149338,11.067687 0.21046234,11.1625931 C0.339657044,11.2568038 0.508443673,11.2846151 0.661254613,11.2359453 L6.83620577,9.28498333 C6.90358151,10.2545544 6.97373562,11.2001383 7.0345127,12.0031893 L4.87119601,13.7142789 C4.68678099,13.8595929 4.58293901,14.081388 4.58293901,14.3156981 L4.58293901,14.7213953 C4.58293901,14.8135202 4.62565661,14.9004304 4.70171478,14.9518813 C4.77812025,15.0033322 4.87327979,15.0144567 4.9590623,14.9807355 L7.36965487,14.0247224 C7.51829824,14.1846374 7.72910788,14.2795434 7.96318646,14.2795434 L8.00972433,14.2795434 C8.24345561,14.2795434 8.45530714,14.1846374 8.60429781,14.0247224 L11.0152377,14.9786497 C11.1006729,15.0123709 11.1954851,15.0026369 11.2708487,14.9508384 C11.3469069,14.8990399 11.3899718,14.8131725 11.3899718,14.7213953 L11.3899718,14.3156981 C11.3899718,14.0810403 11.2850879,13.8595929 11.1010202,13.7142789 L8.9373562,12.0045799 C8.99882787,11.1980524 9.06967658,10.2479492 9.13739961,9.27420645 L15.345344,11.2369883 C15.4974604,11.2849627 15.6648578,11.2578467 15.7937052,11.1629407 C15.9225526,11.0680347 16,10.9171584 16,10.7575911 L16,9.74247905 C16,9.35242571 15.8020404,8.99053129 15.4738442,8.78298954 Z" id="Shape" fill="url(#linearGradient-1)" fill-rule="nonzero"></path>
                    </g>
                </g>
            </g>
        </g>
    </g>
</svg>