<?xml version="1.0" encoding="UTF-8"?>
<svg width="15px" height="13px" viewBox="0 0 15 13" version="1.1" xmlns="http://www.w3.org/2000/svg" xmlns:xlink="http://www.w3.org/1999/xlink">
    <!-- Generator: Sketch 50.2 (55047) - http://www.bohemiancoding.com/sketch -->
    <title>clothing</title>
    <desc>Created with Sketch.</desc>
    <defs></defs>
    <g id="Page-1" stroke="none" stroke-width="1" fill="none" fill-rule="evenodd">
        <g id="10-Countries-Where-Your-Dollar-is-Getting-More-Valuable" transform="translate(-952.000000, -647.000000)">
            <g id="Turkey" transform="translate(0.000000, 347.000000)">
                <g id="Name-of-City/Ranking/Titile">
                    <g id="Table" transform="translate(0.000000, 282.000000)">
                        <g id="Title" transform="translate(1.000000, 0.000000)">
                            <g id="Clothing-" transform="translate(950.000000, 16.000000)">
                                <g id="clothing">
                                    <rect id="baseline" x="0" y="0" width="16" height="16"></rect>
                                    <path d="M11.740976,15 L5.25902399,15 C4.84649877,15 4.51169569,14.6755974 4.51169569,14.275887 L4.51169569,7.81607531 L4.09393917,8.22085445 C3.95381511,8.35698769 3.76362006,8.43301955 3.56520439,8.43301955 C3.36716239,8.43301955 3.17659368,8.35662563 3.03646962,8.22085445 L1.21859353,6.45800145 C0.927135491,6.17523534 0.927135491,5.71723389 1.21859353,5.43410572 L4.54270981,2.2121651 C4.70488005,2.05467053 4.93916748,1.97827661 5.16486062,2.0057929 C5.19587475,2.00217234 5.22726254,2 5.25902399,2 L6.18309543,2 C6.43643973,2 6.67296914,2.12454743 6.81047754,2.33055757 C7.10455123,2.77081825 7.7678051,3.05503259 8.50018683,3.05503259 C9.23256857,3.05503259 9.8961961,2.77081825 10.1902698,2.33055757 C10.3277782,2.12454743 10.5639339,2 10.8176519,2 L11.7417233,2 C11.7734848,2 11.8048726,2.00181028 11.8358867,2.0057929 C11.8665272,2.00217234 11.8975413,2 11.9289291,2 C11.9293027,2 11.9293027,2 11.9293027,2 C12.1273447,2 12.3175398,2.07639392 12.4580375,2.2121651 L15.7814065,5.43374366 C16.0728645,5.71650978 16.0728645,6.17451122 15.7814065,6.45763939 L13.963904,8.22085445 C13.82378,8.35662563 13.6335849,8.43301955 13.4355429,8.43301955 C13.4351693,8.43301955 13.4351693,8.43301955 13.4351693,8.43301955 C13.2371273,8.43338161 13.0469322,8.35698769 12.9068082,8.22121651 L12.488678,7.81571325 L12.488678,14.275887 C12.4883043,14.6759594 12.1538749,15 11.740976,15 Z" id="Combined-Shape" fill="#ADBAD8" fill-rule="nonzero"></path>
                                </g>
                            </g>
                        </g>
                    </g>
                </g>
            </g>
        </g>
    </g>
</svg>