<?xml version="1.0" encoding="UTF-8"?>
<svg width="16px" height="13px" viewBox="0 0 16 13" version="1.1" xmlns="http://www.w3.org/2000/svg" xmlns:xlink="http://www.w3.org/1999/xlink">
    <!-- Generator: Sketch 50.2 (55047) - http://www.bohemiancoding.com/sketch -->
    <title>currency_value</title>
    <desc>Created with Sketch.</desc>
    <defs>
        <linearGradient x1="50%" y1="0%" x2="50%" y2="100%" id="linearGradient-1">
            <stop stop-color="#3DC4F7" offset="0%"></stop>
            <stop stop-color="#229FEF" offset="100%"></stop>
        </linearGradient>
    </defs>
    <g id="Page-1" stroke="none" stroke-width="1" fill="none" fill-rule="evenodd">
        <g id="1440_What-is-Your-Dollar-Worth-Around-the-World" transform="translate(-1003.000000, -1130.000000)">
            <g id="Content" transform="translate(110.000000, 92.000000)">
                <g id="Subheader" transform="translate(45.000000, 613.000000)">
                    <g id="currency_value" transform="translate(848.000000, 424.000000)">
                        <rect id="baseline" x="0" y="0" width="16" height="16"></rect>
                        <g id="Group" transform="translate(0.000000, 1.000000)" fill="url(#linearGradient-1)" fill-rule="nonzero">
                            <path d="M15.1333333,7.4425 C14.6666667,7.02 13.9333333,6.695 12.9,6.435 L12.9,4.5175 C13.4,4.6475 13.9333333,4.9075 14.5333333,5.33 L15.6666667,3.7375 C14.7333333,3.12 13.8333333,2.7625 12.9,2.6325 L12.9,1.9175 L11.4333333,1.9175 L11.4333333,2.5675 C10.6,2.665 9.9,2.9575 9.4,3.445 C8.86666667,3.9325 8.63333333,4.5825 8.63333333,5.33 C8.63333333,6.0775 8.86666667,6.6625 9.3,7.085 C9.76666667,7.475 10.4666667,7.8 11.4333333,8.06 L11.4333333,10.075 C10.8333333,9.9125 10.2,9.5225 9.46666667,8.905 L8.16666667,10.4325 C9.16666667,11.2775 10.2333333,11.7975 11.4333333,11.96 L11.4333333,12.935 L12.9,12.935 L12.9,12.025 C13.8,11.9275 14.5,11.635 15.0333333,11.115 C15.5666667,10.6275 15.8333333,9.9775 15.8333333,9.23 C15.8333333,8.45 15.6,7.865 15.1333333,7.4425 Z M11.4333333,6.0125 C11.0333333,5.8175 10.8333333,5.5575 10.8333333,5.2 C10.8333333,4.8425 11.0333333,4.5825 11.4333333,4.4525 L11.4333333,6.0125 Z M12.9,10.14 L12.9,8.4825 C13.1666667,8.58 13.3666667,8.71 13.4666667,8.84 C13.5666667,8.97 13.6333333,9.1325 13.6333333,9.295 C13.6,9.7175 13.3666667,10.01 12.9,10.14 Z" id="Shape"></path>
                            <path d="M7.73333333,1.8525 L4.86666667,0.13 C4.53333333,-0.065 4.13333333,0.0325 3.93333333,0.3575 C3.73333333,0.6825 3.83333333,1.0725 4.16666667,1.2675 L5.3,1.95 C2.36666667,2.405 0.166666667,4.6475 0.166666667,7.3775 C0.166666667,10.4 2.93333333,12.87 6.33333333,12.87 C6.7,12.87 7,12.5775 7,12.22 C7,11.8625 6.7,11.57 6.33333333,11.57 C3.7,11.57 1.53333333,9.685 1.53333333,7.41 C1.53333333,5.2325 3.46666667,3.445 5.93333333,3.25 L4.9,4.615 C4.66666667,4.9075 4.73333333,5.33 5.03333333,5.5575 C5.16666667,5.655 5.3,5.6875 5.43333333,5.6875 C5.63333333,5.6875 5.83333333,5.59 5.96666667,5.4275 L7.9,2.8925 C8,2.73 8.06666667,2.5675 8.03333333,2.3725 C8.03333333,2.1125 7.9,1.95 7.73333333,1.8525 Z" id="Shape"></path>
                        </g>
                    </g>
                </g>
            </g>
        </g>
    </g>
</svg>