<?xml version="1.0" encoding="UTF-8"?>
<svg width="16px" height="13px" viewBox="0 0 16 13" version="1.1" xmlns="http://www.w3.org/2000/svg" xmlns:xlink="http://www.w3.org/1999/xlink">
    <!-- Generator: Sketch 50.2 (55047) - http://www.bohemiancoding.com/sketch -->
    <title>currency_value</title>
    <desc>Created with Sketch.</desc>
    <defs>
        <linearGradient x1="50%" y1="0%" x2="50%" y2="100%" id="linearGradient-1">
            <stop stop-color="#3DC4F7" offset="0%"></stop>
            <stop stop-color="#229FEF" offset="100%"></stop>
        </linearGradient>
    </defs>
    <g id="Report" stroke="none" stroke-width="1" fill="none" fill-rule="evenodd">
        <g id="1440_X-Rates2" transform="translate(-1003.000000, -1131.000000)">
            <g id="Content" transform="translate(110.000000, 92.000000)">
                <g id="Subheader" transform="translate(45.000000, 613.000000)">
                    <g id="currency_value" transform="translate(848.000000, 424.000000)">
                        <rect id="baseline" x="0" y="0" width="16" height="16"></rect>
                        <g id="Group" transform="translate(0.000000, 2.000000)" fill="url(#linearGradient-1)" fill-rule="nonzero">
                            <path d="M15.2695652,7.01769912 C14.7826087,6.55752212 14.0173913,6.20353982 12.9391304,5.92035398 L12.9391304,3.83185841 C13.4608696,3.97345133 14.0173913,4.25663717 14.6434783,4.71681416 L15.826087,2.98230088 C14.8521739,2.30973451 13.9130435,1.92035398 12.9391304,1.77876106 L12.9391304,1 L11.4086957,1 L11.4086957,1.7079646 C10.5391304,1.81415929 9.80869565,2.13274336 9.28695652,2.66371681 C8.73043478,3.19469027 8.48695652,3.90265487 8.48695652,4.71681416 C8.48695652,5.53097345 8.73043478,6.16814159 9.1826087,6.62831858 C9.66956522,7.05309735 10.4,7.40707965 11.4086957,7.69026549 L11.4086957,9.88495575 C10.7826087,9.7079646 10.1217391,9.28318584 9.35652174,8.61061947 L8,10.2743363 C9.04347826,11.1946903 10.1565217,11.7610619 11.4086957,11.9380531 L11.4086957,13 L12.9391304,13 L12.9391304,12.0088496 C13.8782609,11.9026549 14.6086957,11.5840708 15.1652174,11.0176991 C15.7217391,10.4867257 16,9.77876106 16,8.96460177 C16,8.11504425 15.7565217,7.47787611 15.2695652,7.01769912 Z M11.4086957,5.46017699 C10.9913043,5.24778761 10.7826087,4.96460177 10.7826087,4.57522124 C10.7826087,4.18584071 10.9913043,3.90265487 11.4086957,3.76106195 L11.4086957,5.46017699 Z M12.9391304,9.95575221 L12.9391304,8.15044248 C13.2173913,8.25663717 13.426087,8.39823009 13.5304348,8.53982301 C13.6347826,8.68141593 13.7043478,8.85840708 13.7043478,9.03539823 C13.6695652,9.49557522 13.426087,9.81415929 12.9391304,9.95575221 Z" id="Shape"></path>
                            <path d="M7.73333333,1.8525 L4.86666667,0.13 C4.53333333,-0.065 4.13333333,0.0325 3.93333333,0.3575 C3.73333333,0.6825 3.83333333,1.0725 4.16666667,1.2675 L5.3,1.95 C2.36666667,2.405 0.166666667,4.6475 0.166666667,7.3775 C0.166666667,10.4 2.93333333,12.87 6.33333333,12.87 C6.7,12.87 7,12.5775 7,12.22 C7,11.8625 6.7,11.57 6.33333333,11.57 C3.7,11.57 1.53333333,9.685 1.53333333,7.41 C1.53333333,5.2325 3.46666667,3.445 5.93333333,3.25 L4.9,4.615 C4.66666667,4.9075 4.73333333,5.33 5.03333333,5.5575 C5.16666667,5.655 5.3,5.6875 5.43333333,5.6875 C5.63333333,5.6875 5.83333333,5.59 5.96666667,5.4275 L7.9,2.8925 C8,2.73 8.06666667,2.5675 8.03333333,2.3725 C8.03333333,2.1125 7.9,1.95 7.73333333,1.8525 Z" id="Shape"></path>
                        </g>
                    </g>
                </g>
            </g>
        </g>
    </g>
</svg>