<?xml version="1.0" encoding="UTF-8"?>
<svg width="16px" height="12px" viewBox="0 0 16 12" version="1.1" xmlns="http://www.w3.org/2000/svg" xmlns:xlink="http://www.w3.org/1999/xlink">
    <!-- Generator: Sketch 50.2 (55047) - http://www.bohemiancoding.com/sketch -->
    <title>daily_expenses</title>
    <desc>Created with Sketch.</desc>
    <defs>
        <linearGradient x1="50%" y1="0%" x2="50%" y2="100%" id="linearGradient-1">
            <stop stop-color="#3DC4F7" offset="0%"></stop>
            <stop stop-color="#229FEF" offset="100%"></stop>
        </linearGradient>
    </defs>
    <g id="Page-1" stroke="none" stroke-width="1" fill="none" fill-rule="evenodd">
        <g id="1440_What-is-Your-Dollar-Worth-Around-the-World" transform="translate(-652.000000, -1131.000000)">
            <g id="Content" transform="translate(110.000000, 92.000000)">
                <g id="Subheader" transform="translate(45.000000, 613.000000)">
                    <g id="daily_expenses" transform="translate(497.000000, 424.000000)">
                        <rect id="baseline" x="0" y="0" width="16" height="16"></rect>
                        <g id="Group" transform="translate(0.000000, 2.000000)" fill="url(#linearGradient-1)" fill-rule="nonzero">
                            <path d="M10.04,9 C8.39,9 7.04,7.65 7.04,6 C7.04,4.35 8.39,3 10.04,3 L14,3 C14.35,3 14.69,3.06 15,3.18 L15,2 C15,0.9 14.11,0 13,0 L1,0 C0.45,0 0,0.45 0,1 L0,11 C0,11.55 0.45,12 1,12 L13,12 C14.11,12 15,11.1 15,10 L15,8.82 C14.69,8.94 14.35,9 14,9 L10.04,9 Z" id="Shape"></path>
                            <path d="M14,4 L10.04,4 C8.94,4 8.04,4.9 8.04,6 C8.04,7.041 8.888,8 10.04,8 L14,8 C15.11,8 16,7.1 16,6 C16,4.884 15.098,4 14,4 Z M12,7 C11.45,7 11,6.55 11,6 C11,5.45 11.45,5 12,5 C12.56,5 13,5.45 13,6 C13,6.55 12.56,7 12,7 Z" id="Shape"></path>
                        </g>
                    </g>
                </g>
            </g>
        </g>
    </g>
</svg>