<?xml version="1.0" encoding="UTF-8"?>
<svg width="14px" height="14px" viewBox="0 0 14 14" version="1.1" xmlns="http://www.w3.org/2000/svg" xmlns:xlink="http://www.w3.org/1999/xlink">
    <!-- Generator: Sketch 44.1 (41455) - http://www.bohemiancoding.com/sketch -->
    <title>Shape</title>
    <desc>Created with Sketch.</desc>
    <defs></defs>
    <g id="Index" stroke="none" stroke-width="1" fill="none" fill-rule="evenodd" fill-opacity="0.5">
        <g id="1440_What-is-Your-Dollar-Worth-Around-the-World" transform="translate(-189.000000, -3215.000000)" fill-rule="nonzero" fill="#6B81B3">
            <g id="Content" transform="translate(110.000000, 356.000000)">
                <g id="10-Countries-Where-Your-Dollar-is-Getting-More-Valuable" transform="translate(45.000000, 1836.000000)">
                    <g id="UK" transform="translate(0.000000, 752.000000)">
                        <g id="Name-of-City/Ranking/Titile">
                            <g id="Table" transform="translate(0.000000, 254.000000)">
                                <g id="Title" transform="translate(1.000000, 0.000000)">
                                    <g id="Drinks-&amp;-Dining" transform="translate(32.000000, 16.000000)">
                                        <g id="dining">
                                            <path d="M10.5440606,9.21307415 L10.0146854,9.75537087 L8.57968483,8.28541933 L9.43918128,7.40498894 C10.2449199,7.91594275 11.3108617,7.82496709 12.0237956,7.13172584 L12.0248074,7.1327622 L15,4.08507761 L14.3080935,3.37631896 L12.0247253,5.71527291 L11.5567095,5.23585808 L13.8400503,2.89690412 L13.1481984,2.18814547 L10.8648577,4.52709943 L10.3968418,4.04768459 L12.6801826,1.70873064 L11.9882761,1 L9.01302876,4.0477126 L9.01404048,4.04874896 C8.33728238,4.77904711 8.24849719,5.87092308 8.74727474,6.69631432 L8.41986054,7.03170303 L5.09455838,3.62538163 C4.12330797,2.63047541 2.74947537,2.16548559 1.39079121,2.37174937 C1.01908012,2.428161 0.868744119,2.89421519 1.13444345,3.1663859 L6.66384419,8.830461 L5.74799224,9.76861948 L5.21861702,9.22635077 L1.69542806,12.8352947 C1.21199036,13.330507 1.21199036,14.1334064 1.69542806,14.6285907 C2.17886576,15.1238031 2.96267468,15.1238031 3.44608504,14.6285907 L6.96924666,11.0196188 L6.43987144,10.4773501 L7.88777829,8.99417797 L9.32277889,10.4641295 L8.79340367,11.0063982 L12.3165653,14.6153701 C12.800003,15.1105825 13.5838119,15.1105825 14.0672223,14.6153701 C14.5506326,14.1201578 14.55066,13.3172584 14.0672223,12.8220741 L10.5440606,9.21307415 Z" id="Shape"></path>
                                        </g>
                                    </g>
                                </g>
                            </g>
                        </g>
                    </g>
                </g>
            </g>
        </g>
    </g>
</svg>