<?xml version="1.0" encoding="UTF-8"?>
<svg width="88px" height="91px" viewBox="0 0 88 91" version="1.1" xmlns="http://www.w3.org/2000/svg" xmlns:xlink="http://www.w3.org/1999/xlink">
    <defs>
        <linearGradient x1="50%" y1="0%" x2="50%" y2="100%" id="linearGradient-1">
            <stop stop-color="#3DC4F7" offset="0%"></stop>
            <stop stop-color="#229FEF" offset="100%"></stop>
        </linearGradient>
    </defs>
    <g id="Page-1" stroke="none" stroke-width="1" fill="none" fill-rule="evenodd">
        <g id="What-is-Your-Dollar-Worth-Around-the-World" transform="translate(-158.000000, -972.000000)">
            <g id="Content" transform="translate(110.000000, 356.000000)">
                <g id="Subheader" transform="translate(45.000000, 613.000000)">
                    <g id="first_icon">
                        <rect id="baseline" x="0" y="0" width="96" height="96"></rect>
                        <g id="Page-1" transform="translate(3.000000, 2.000000)">
                            <g id="Group-22" transform="translate(0.000000, 0.328177)">
                                <path d="M79.5390881,4.35925 C79.5390881,6.32043182 77.9625167,7.90988636 76.017231,7.90988636 C74.0719452,7.90988636 72.4953738,6.32043182 72.4953738,4.35925 C72.4953738,2.39806818 74.0719452,0.808613636 76.017231,0.808613636 C77.9625167,0.808613636 79.5390881,2.39806818 79.5390881,4.35925" id="Fill-10" fill="#66CCFF" opacity="0.600000024"></path>
                                <path d="M42.8373952,31.7032091 C51.7204429,31.5237545 59.0650619,38.6399818 59.2409429,47.5956182 C59.4189429,56.5491182 52.3603952,63.9537545 43.4794667,64.1332091 C34.596419,64.3105273 27.2518,57.1964364 27.0738,48.2408 C26.897919,39.2851636 33.9543476,31.8805273 42.8373952,31.7032091 Z" id="Path" fill="#E6F7FF"></path>
                                <path d="M73.4277762,21.0672364 C73.4277762,21.6355091 72.972181,22.0948273 72.4085143,22.0948273 C71.8448476,22.0948273 71.3871333,21.6355091 71.3871333,21.0672364 C71.3871333,20.4989636 71.8448476,20.0396455 72.4085143,20.0396455 C72.972181,20.0396455 73.4277762,20.4989636 73.4277762,21.0672364" id="Fill-11" fill="#66CCFF"></path>
                                <path d="M87.2111,19.6586045 C87.2111,20.6691045 86.3973857,21.4894682 85.3950762,21.4894682 C84.3927667,21.4894682 83.5790524,20.6691045 83.5790524,19.6586045 C83.5790524,18.6481045 84.3927667,17.8277409 85.3950762,17.8277409 C86.3973857,17.8277409 87.2111,18.6481045 87.2111,19.6586045" id="Fill-12" fill="#66CCFF" opacity="0.400000006"></path>
                                <path d="M2.58354286,8.91504545 C1.15530476,8.91504545 0.000423809524,7.75072727 0.000423809524,6.31295455 C0.000423809524,4.87518182 1.15530476,3.70872727 2.58354286,3.70872727 C4.00754286,3.70872727 5.16454286,4.87518182 5.16454286,6.31295455 C5.16454286,7.75072727 4.00754286,8.91504545 2.58354286,8.91504545 Z" id="Fill-13" fill="#66CCFF" opacity="0.600000024"></path>
                                <path d="M23.3756381,12.0360591 C23.3756381,12.8863318 22.6933048,13.5742409 21.8499238,13.5742409 C21.0065429,13.5742409 20.3242095,12.8863318 20.3242095,12.0360591 C20.3242095,11.1857864 21.0065429,10.4978773 21.8499238,10.4978773 C22.6933048,10.4978773 23.3756381,11.1857864 23.3756381,12.0360591" id="Fill-14" fill="#66CCFF" opacity="0.600000024"></path>
                                <path d="M9.65035476,26.8312318 C9.65035476,28.7988227 8.06742619,30.3946864 6.11578333,30.3946864 C4.16414048,30.3946864 2.5812119,28.7988227 2.5812119,26.8312318 C2.5812119,24.8636409 4.16414048,23.2677773 6.11578333,23.2677773 C8.06742619,23.2677773 9.65035476,24.8636409 9.65035476,26.8312318" id="Fill-15" fill="#66CCFF" opacity="0.900000036"></path>
                                <path d="M43.1577549,73.5062722 C29.1409995,73.5062722 17.7771328,62.0495445 17.7771328,47.9182498 C17.7771328,33.7847373 29.1409995,22.3302273 43.1577549,22.3302273 C57.1745103,22.3280096 68.538377,33.7847373 68.538377,47.9182498 C68.538377,62.0495445 57.1745103,73.5062722 43.1577549,73.5062722 M43.1577549,14.2355591 C24.7063198,14.2355591 9.74807488,29.3160369 9.75027462,47.9182498 C9.74807488,66.5204627 24.7063198,81.5987227 43.1577549,81.5987227 C61.60919,81.5987227 76.5652352,66.5204627 76.5674349,47.9182498 C76.5674349,29.3160369 61.60919,14.2355591 43.1577549,14.2355591" id="Fill-17" fill="#E6F7FF"></path>
                                <polygon id="Fill-19" fill="#E6F7FF" points="66.6383262 80.8917 74.0691631 87.1718227 81.5 79.2473295 75.6230881 71.8228364"></polygon>
                                <path d="M75.3622281,87.4095419 L76.8358868,88.893059 L76.8358868,88.893059 C77.2229417,89.2827032 77.2233212,89.9115825 76.8367369,90.3016934 L75.9983372,91.1477415 C75.6095902,91.540035 74.9764317,91.54291 74.5841383,91.1541629 C74.582284,91.1523254 74.580437,91.1504807 74.5785972,91.1486287 L65.0898646,81.5972385 C64.7028072,81.2076251 64.7023846,80.5787738 65.088918,80.1886406 L68.8187506,76.4240723 L65.7211733,73.2320572 C59.7363494,78.6601486 51.823269,81.9673591 43.158219,81.9673591 C24.5360286,81.9673591 9.3848381,66.6923591 9.3848381,47.9179955 C9.3848381,40.5881318 11.6606952,33.6064955 15.964481,27.72295 L18.5221714,29.62645 C14.6231238,34.9545409 12.5634095,41.2803136 12.5634095,47.9179955 C12.5634095,48.9938529 12.6183305,50.0570242 12.7254944,51.1048091 L16.2598762,51.1048091 L22.5492095,44.2470818 L25.4949657,47.2169096 C25.6605229,42.8492403 27.3853179,38.748535 30.4121476,35.5723773 C33.6839571,32.1371045 38.085219,30.19515 42.8064571,30.10115 C47.5022667,30.0092864 52.0010048,31.7717864 55.4063143,35.0681955 C57.8422467,37.4292252 59.5214657,40.3736467 60.3141953,43.6021816 L70.8171624,34.7422428 C65.9073926,24.3076242 55.3552988,17.0753136 43.158219,17.0753136 C41.0963857,17.0753136 39.0345524,17.2804045 37.0341714,17.6927227 L36.4026952,14.5501318 C38.6107429,14.0993591 40.884481,13.8707682 43.158219,13.8707682 C61.7804095,13.8707682 76.929481,29.1436318 76.929481,47.9179955 C76.929481,56.767703 73.5634864,64.8398818 68.0543762,70.9012128 L71.2378851,73.9824086 L74.9121134,70.2739624 C75.3008235,69.8816323 75.9339817,69.8786977 76.3263118,70.2674078 C76.3282116,70.26929 76.3301038,70.2711798 76.3319884,70.2730772 L85.8189358,79.8245278 C86.2058249,80.2140474 86.2063354,80.8426408 85.8200796,81.2327883 L84.9830393,82.0782623 C84.5944774,82.4707392 83.9613204,82.4739129 83.5688435,82.085351 C83.5668955,82.0834225 83.5649555,82.0814859 83.5630234,82.0795414 L82.0994666,80.6065553 L75.3622281,87.4095419 Z M73.1122663,85.1445285 L79.8492292,78.3418202 L76.3340413,74.8039848 C75.944773,74.4122085 75.3116113,74.4101754 74.919835,74.7994437 C74.9180021,74.8012649 74.9161762,74.8030932 74.9143575,74.8049286 L69.5835203,80.1843975 C69.196936,80.5745085 69.1973155,81.2033877 69.5843703,81.5930319 L73.1122663,85.1445285 Z M13.2239182,54.3093545 C16.1512749,68.2606055 28.4613741,78.7628136 43.158219,78.7628136 C50.9594862,78.7628136 58.0878065,75.8036928 63.4972592,70.9403412 L63.3518952,70.7905455 L65.5980857,68.5238636 L65.7618645,68.6823788 C70.7224018,63.1978368 73.7509095,55.9077487 73.7509095,47.9179955 C73.7509095,44.3963156 73.1625244,41.0106599 72.0796506,37.855692 L60.8255922,47.3511357 C60.8278263,47.4219458 60.8296547,47.4928302 60.8310762,47.5637864 C60.9243143,52.3214682 59.173981,56.8334682 55.9021714,60.2644682 C52.632481,63.6997409 48.231219,65.6416955 43.509981,65.7356955 C43.3891952,65.7378318 43.2684095,65.7399682 43.1455048,65.7399682 C38.5598857,65.7399682 34.2285524,63.9796045 30.9101238,60.7665136 C28.4825431,58.4151028 26.8054176,55.4821195 26.0095005,52.2668762 L22.6382095,48.8680364 L17.6499714,54.3093545 L13.2239182,54.3093545 Z M44.7479286,55.6623136 L44.7479286,59.1366818 L41.5693571,59.1366818 L41.5693571,55.6623136 L36.714831,55.6623136 L36.714831,52.4577682 L41.5693571,52.4577682 L41.5693571,49.5198031 C39.044046,49.4841439 37.0009024,47.4023125 37.0009024,44.8480409 C37.0009024,42.2916513 39.044046,40.2119015 41.5693571,40.1762782 L41.5693571,36.7005909 L44.7479286,36.7005909 L44.7479286,40.1758136 L49.6007595,40.1758136 L49.6007595,43.3803591 L44.7479286,43.3803591 L44.7479286,46.3157227 L44.9155452,46.3157227 C47.4711167,46.3157227 49.5499024,48.4114955 49.5499024,50.98795 C49.5499024,53.5665409 47.4711167,55.6623136 44.9155452,55.6623136 L44.7479286,55.6623136 Z M44.7479286,52.4577682 L44.9155452,52.4577682 C45.7186643,52.4577682 46.371331,51.7976318 46.371331,50.98795 C46.371331,50.1804045 45.7186643,49.5202682 44.9155452,49.5202682 L44.7479286,49.5202682 L44.7479286,52.4577682 Z M41.5693571,43.3818413 C40.7967391,43.416662 40.1794738,44.0606243 40.1794738,44.8480409 C40.1794738,45.6333799 40.7967391,46.2793055 41.5693571,46.3142358 L41.5693571,43.3818413 Z M42.8686787,33.2883244 C34.8540053,33.4483086 28.4873873,40.1290948 28.6460748,48.2092609 C28.8066742,56.2894271 35.4333102,62.7080705 43.4479835,62.5480863 C51.460745,62.3861745 57.8292749,55.7053883 57.6686755,47.6271497 C57.509988,39.5469836 50.883352,33.1264127 42.8686787,33.2883244 Z M26.1359095,22.2859045 L24.3643857,19.6239955 C26.9517429,17.87645 29.7573619,16.4984955 32.7049571,15.5328591 L33.6881952,18.5793136 C31.0203143,19.4552227 28.4774571,20.7028591 26.1359095,22.2859045 Z M20.5246714,27.1653591 L18.1725286,25.0076318 C19.1578857,23.9202227 20.2195286,22.8840864 21.3362667,21.9312682 L23.3917429,24.3774045 C22.3809571,25.2404955 21.4167905,26.1783591 20.5246714,27.1653591 Z" id="Combined-Shape" fill="url(#linearGradient-1)"></path>
                            </g>
                        </g>
                    </g>
                </g>
            </g>
        </g>
    </g>
</svg>