<?xml version="1.0" encoding="UTF-8"?>
<svg width="16px" height="10px" viewBox="0 0 16 10" version="1.1" xmlns="http://www.w3.org/2000/svg" xmlns:xlink="http://www.w3.org/1999/xlink">
    <!-- Generator: Sketch 44.1 (41455) - http://www.bohemiancoding.com/sketch -->
    <title>Combined Shape</title>
    <desc>Created with Sketch.</desc>
    <defs></defs>
    <g id="Index" stroke="none" stroke-width="1" fill="none" fill-rule="evenodd" opacity="0.5">
        <g id="1440_What-is-Your-Dollar-Worth-Around-the-World" transform="translate(-392.000000, -3217.000000)" fill="#6B81B3">
            <g id="Content" transform="translate(110.000000, 356.000000)">
                <g id="10-Countries-Where-Your-Dollar-is-Getting-More-Valuable" transform="translate(45.000000, 1836.000000)">
                    <g id="UK" transform="translate(0.000000, 752.000000)">
                        <g id="Name-of-City/Ranking/Titile">
                            <g id="Table" transform="translate(0.000000, 254.000000)">
                                <g id="Title" transform="translate(1.000000, 0.000000)">
                                    <g id="Groceries" transform="translate(236.000000, 16.000000)">
                                        <g id="groceries">
                                            <path d="M0.02418007,8.3653197 C0.00816867397,8.53778874 4.34991822e-14,8.71225159 4.35207426e-14,8.8883057 L4.35207426e-14,8.8883057 L4.30766534e-14,10.5212825 C4.32443023e-14,11.8902404 1.10975964,13 2.47871752,13 L13.5212825,13 C14.8902404,13 16,11.8902404 16,10.5212825 L16,9.33118523 C15.9999992,9.15389607 15.9276156,8.97757857 15.7862935,8.85220392 C15.7558298,8.82517785 15.7235206,8.80172358 15.6898558,8.78180589 C15.0329837,9.47649084 14.2524777,9.83814313 13.3753246,9.83814313 C13.0402141,9.83814313 12.7424852,9.77209829 12.4633324,9.64466003 C12.2564714,9.55022425 12.1002569,9.44810492 11.8535547,9.26365129 C11.8386749,9.252526 11.7882072,9.21468261 11.7797141,9.20832576 C11.382534,8.91104975 11.1866917,8.82368293 10.7995661,8.82368293 C10.590455,8.82368293 10.435869,8.85695719 10.2987461,8.92044431 C10.1875114,8.97194535 10.0992439,9.03235296 9.90191692,9.18653201 C9.89303896,9.19346948 9.89303896,9.19346948 9.88405,9.20049362 C9.60964561,9.41489332 9.45746195,9.51863851 9.22728534,9.62410531 C8.91796048,9.7658378 8.57672128,9.83814313 8.17725763,9.83814313 C7.78087918,9.83814313 7.43772895,9.76712152 7.12008686,9.62894694 C6.88695725,9.52753535 6.7342043,9.43141227 6.43069709,9.21629456 C6.19724033,9.05082679 6.09710213,8.9877974 5.96633128,8.93086493 C5.8040681,8.86022194 5.6277664,8.82368293 5.39978303,8.82368293 C4.9954918,8.82368293 4.80714692,8.90802799 4.42227275,9.20364567 C4.4134713,9.21040597 4.37381139,9.24091694 4.36294957,9.24925749 C4.11352965,9.44078166 3.96027621,9.54335874 3.74912944,9.64048392 C3.4653127,9.7710365 3.1586472,9.83814313 2.80850784,9.83814313 C1.89569348,9.83814313 1.05951944,9.47578017 0.321167803,8.77539448 C0.271403705,8.80342399 0.224604532,8.8389597 0.182358808,8.88200371 C-0.06034041,9.12928904 -0.0608507587,9.53073912 0.181218912,9.77866756 C0.953266594,10.569401 1.83752786,10.9794157 2.80850784,10.9794157 C3.1586472,10.9794157 3.4653127,10.9123091 3.74912944,10.7817565 C3.96027621,10.6846313 4.11352965,10.5820542 4.36294957,10.3905301 C4.37381139,10.3821895 4.4134713,10.3516785 4.42227275,10.3449182 C4.80714692,10.0493006 4.9954918,9.96495549 5.39978303,9.96495549 C5.6277664,9.96495549 5.8040681,10.0014945 5.96633128,10.0721375 C6.09710213,10.12907 6.19724033,10.1920994 6.43069709,10.3575671 C6.7342043,10.5726848 6.88695725,10.6688079 7.12008686,10.7702195 C7.43772895,10.9083941 7.78087918,10.9794157 8.17725763,10.9794157 C8.57672128,10.9794157 8.91796048,10.9071104 9.22728534,10.7653779 C9.45746195,10.6599111 9.60964561,10.5561659 9.88405,10.3417662 C9.89303896,10.334742 9.89303896,10.334742 9.90191692,10.3278046 C10.0992439,10.1736255 10.1875114,10.1132179 10.2987461,10.0617169 C10.435869,9.99822975 10.590455,9.96495549 10.7995661,9.96495549 C11.1866917,9.96495549 11.382534,10.0523223 11.7797141,10.3495983 C11.7882072,10.3559552 11.8386749,10.3937986 11.8535547,10.4049239 C12.1002569,10.5893775 12.2564714,10.6914968 12.4633324,10.7859326 C12.7424852,10.9133708 13.0402141,10.9794157 13.3753246,10.9794157 C14.3239473,10.9794157 15.159532,10.5564282 15.8479429,9.74665416 C15.9499747,9.62663474 16.0000007,9.47857418 16,9.33118507 L16,8.84140425 C16,8.67744842 15.992878,8.51489609 15.9789018,8.35407368 C16.021451,8.19168739 15.9993289,8.01647589 15.915381,7.86972183 C15.8923657,7.73893795 15.8647812,7.6095851 15.8327824,7.48185206 C15.7858162,7.53653993 15.7381704,7.58943748 15.6898558,7.64053333 C15.4375155,7.49123668 15.1090148,7.5406427 14.9107087,7.77390901 C14.4492261,8.31674853 13.94881,8.57006788 13.3753246,8.57006788 C13.0885064,8.57006788 12.9322582,8.49873779 12.5867029,8.24037383 C12.5726799,8.22988915 12.5225563,8.19230381 12.5133658,8.18542504 C12.2410915,7.98163678 12.0711265,7.87111816 11.837971,7.76710565 C11.5255036,7.62771151 11.1869232,7.55560768 10.7995661,7.55560768 C10.4158164,7.55560768 10.0864292,7.62650748 9.78631421,7.76545901 C9.56393441,7.86841959 9.41667942,7.96919647 9.1477765,8.17930051 C9.13879278,8.18632062 9.13879278,8.18632062 9.12991589,8.19325719 C8.92801834,8.3510053 8.83660407,8.41332335 8.71926756,8.46708688 C8.57221823,8.53446481 8.4041924,8.57006788 8.17725763,8.57006788 C7.94743638,8.57006788 7.76974273,8.53329072 7.60642015,8.46224526 C7.47499196,8.40507388 7.37457207,8.3418825 7.14045197,8.1759445 C6.83769139,7.96135609 6.68533199,7.86545741 6.45300493,7.76431137 C6.13637339,7.62646249 5.79449706,7.55560768 5.39978303,7.55560768 C5.00260969,7.55560768 4.65980755,7.62747893 4.3472177,7.76746368 C4.11240666,7.87261733 3.94525007,7.98350925 3.67627623,8.19010514 C3.66694428,8.19727291 3.62737178,8.22771664 3.61708384,8.23561652 C3.27241452,8.50028065 3.12069952,8.57006788 2.80850784,8.57006788 C2.18301379,8.57006788 1.60871297,8.30377578 1.06011053,7.7418956 C0.860176997,7.53712312 0.557295539,7.50112351 0.321167803,7.63412191 C0.274119148,7.58949249 0.227467691,7.54349057 0.181218912,7.49612244 C0.179433209,7.49429352 0.177660707,7.49245624 0.175901405,7.49061073 C0.145484485,7.60919996 0.11885654,7.72918933 0.0961399796,7.85042767 C-8.24371774e-05,8.00537887 -0.0240902956,8.19370309 0.02418007,8.3653197 Z M0.572352428,6.41624666 C1.31329564,4.9048021 2.71751865,3.75904733 4.4519743,3.39028319 L4.45197472,3.39028516 C4.74976051,3.32697266 5.04354671,3.27118024 5.33333333,3.22290788 L5.33333333,5.27305288 L6.4,5.27305288 L6.4,3.0772723 C6.76225996,3.03908453 7.11781551,3.01350248 7.46666667,3.00052615 L7.46666667,5.27305288 L8.53333333,5.27305288 L8.53333333,3 C8.88218449,3.01229484 9.23774004,3.03653337 9.6,3.07271558 L9.6,5.27305288 L10.6666667,5.27305288 L10.6666667,3.21070265 C10.9420855,3.25417216 11.2211172,3.30407777 11.5037616,3.3604195 L11.5037591,3.36043241 C13.2719663,3.71290295 14.7053526,4.87684204 15.4478091,6.41814852 C15.252168,6.39614237 15.0495351,6.46933577 14.9107087,6.63263645 C14.4492261,7.17547597 13.94881,7.42879532 13.3753246,7.42879532 C13.0885064,7.42879532 12.9322582,7.35746522 12.5867029,7.09910126 C12.5726799,7.08861659 12.5225563,7.05103125 12.5133658,7.04415248 C12.2410915,6.84036422 12.0711265,6.7298456 11.837971,6.62583309 C11.5255036,6.48643895 11.1869232,6.41433511 10.7995661,6.41433511 C10.4158164,6.41433511 10.0864292,6.48523492 9.78631421,6.62418644 C9.56393441,6.72714702 9.41667942,6.82792391 9.1477765,7.03802795 C9.13879278,7.04504806 9.13879278,7.04504806 9.12991589,7.05198463 C8.92801834,7.20973273 8.83660407,7.27205079 8.71926756,7.32581432 C8.57221823,7.39319225 8.4041924,7.42879532 8.17725763,7.42879532 C7.94743638,7.42879532 7.76974273,7.39201816 7.60642015,7.3209727 C7.47499196,7.26380132 7.37457207,7.20060994 7.14045197,7.03467194 C6.83769139,6.82008352 6.68533199,6.72418485 6.45300493,6.62303881 C6.13637339,6.48518992 5.79449706,6.41433511 5.39978303,6.41433511 C5.00260969,6.41433511 4.65980755,6.48620637 4.3472177,6.62619112 C4.11240666,6.73134477 3.94525007,6.84223669 3.67627623,7.04883258 C3.66694428,7.05600035 3.62737178,7.08644407 3.61708384,7.09434396 C3.27241452,7.35900809 3.12069952,7.42879532 2.80850784,7.42879532 C2.18301379,7.42879532 1.60871297,7.16250322 1.06011053,6.60062304 C0.926590049,6.46387099 0.747155893,6.40238985 0.572352428,6.41624666 Z" id="Combined-Shape"></path>
                                        </g>
                                    </g>
                                </g>
                            </g>
                        </g>
                    </g>
                </g>
            </g>
        </g>
    </g>
</svg>