<?xml version="1.0" encoding="UTF-8"?>
<svg width="12px" height="16px" viewBox="0 0 12 16" version="1.1" xmlns="http://www.w3.org/2000/svg" xmlns:xlink="http://www.w3.org/1999/xlink">
    <!-- Generator: Sketch 44.1 (41455) - http://www.bohemiancoding.com/sketch -->
    <title>Shape</title>
    <desc>Created with Sketch.</desc>
    <defs>
        <linearGradient x1="50%" y1="0%" x2="50%" y2="100%" id="linearGradient-1">
            <stop stop-color="#3DC4F7" offset="0%"></stop>
            <stop stop-color="#229FEF" offset="100%"></stop>
        </linearGradient>
    </defs>
    <g id="Index" stroke="none" stroke-width="1" fill="none" fill-rule="evenodd">
        <g id="1440_What-is-Your-Dollar-Worth-Around-the-World" transform="translate(-881.000000, -1291.000000)" fill-rule="nonzero" fill="url(#linearGradient-1)">
            <g id="Content" transform="translate(110.000000, 356.000000)">
                <g id="Subheader" transform="translate(45.000000, 613.000000)">
                    <g id="hotels" transform="translate(724.000000, 322.000000)">
                        <path d="M12,0 L4,0 C3.1562123,0 2,1 2,2 L2,15 C2,15.5 2.5,16 3,16 L6.91580217,15.9996517 L6.91580217,11.8610482 C6.91580217,11.7346335 7.01278649,11.6176215 7.14342581,11.6176215 L8.82291918,11.6176215 C8.95464415,11.6176215 9.04837153,11.7346335 9.04837153,11.8610482 L9.04837153,16 L13,16 C13.5,16 14,15.5 14,15 L14,2 C14,1 13,0 12,0 Z M6.01218335,13.6148355 C6.01218335,13.740902 5.90579011,13.8432875 5.7747889,13.8432875 L4.08082027,13.8432875 C3.94981906,13.8432875 3.8437877,13.740902 3.8437877,13.6148355 L3.8437877,11.984677 C3.8437877,11.8586105 3.94981906,11.756225 4.08082027,11.756225 L5.7747889,11.756225 C5.90579011,11.756225 6.01218335,11.8582622 6.01218335,11.984677 L6.01218335,13.6148355 Z M6.01218335,10.6581926 C6.01218335,10.7842591 5.90579011,10.8866446 5.7747889,10.8866446 L4.08082027,10.8866446 C3.94981906,10.8866446 3.8437877,10.7846073 3.8437877,10.6581926 L3.8437877,9.02803413 C3.8437877,8.90196761 3.94981906,8.79993035 4.08082027,8.79993035 L5.7747889,8.79993035 C5.90579011,8.79993035 6.01218335,8.90196761 6.01218335,9.02803413 L6.01218335,10.6581926 Z M6.01218335,7.66707296 C6.01218335,7.79313947 5.90579011,7.89552499 5.7747889,7.89552499 L4.08082027,7.89552499 C3.94981906,7.89552499 3.8437877,7.79313947 3.8437877,7.66707296 L3.8437877,6.03726275 C3.8437877,5.91084799 3.94981906,5.80881073 4.08082027,5.80881073 L5.7747889,5.80881073 C5.90579011,5.80881073 6.01218335,5.91084799 6.01218335,6.03726275 L6.01218335,7.66707296 Z M6.01218335,4.71077834 C6.01218335,4.83684485 5.90579011,4.93923037 5.7747889,4.93923037 L4.08082027,4.93923037 C3.94981906,4.93923037 3.8437877,4.8371931 3.8437877,4.71077834 L3.8437877,3.08061989 C3.8437877,2.95455337 3.94981906,2.85216786 4.08082027,2.85216786 L5.7747889,2.85216786 C5.90579011,2.85216786 6.01218335,2.95420512 6.01218335,3.08061989 L6.01218335,4.71077834 Z M8.84716526,10.8866446 L7.15247286,10.8866446 C7.02183353,10.8866446 6.91544029,10.7846073 6.91544029,10.6581926 L6.91544029,9.02803413 C6.91544029,8.90196761 7.02183353,8.79993035 7.15247286,8.79993035 L8.84680338,8.79993035 C8.97708082,8.79993035 9.08383595,8.90196761 9.08383595,9.02803413 L9.08383595,10.6581926 C9.08419783,10.7842591 8.9774427,10.8866446 8.84716526,10.8866446 Z M8.84716526,7.89552499 L7.15247286,7.89552499 C7.02183353,7.89552499 6.91544029,7.79313947 6.91544029,7.66707296 L6.91544029,6.03726275 C6.91544029,5.91084799 7.02183353,5.80881073 7.15247286,5.80881073 L8.84680338,5.80881073 C8.97708082,5.80881073 9.08383595,5.91084799 9.08383595,6.03726275 L9.08383595,7.66707296 C9.08419783,7.79313947 8.9774427,7.89552499 8.84716526,7.89552499 Z M8.84716526,4.93923037 L7.15247286,4.93923037 C7.02183353,4.93923037 6.91544029,4.8371931 6.91544029,4.71077834 L6.91544029,3.08061989 C6.91544029,2.95455337 7.02183353,2.85216786 7.15247286,2.85216786 L8.84680338,2.85216786 C8.97708082,2.85216786 9.08383595,2.95420512 9.08383595,3.08061989 L9.08383595,4.71077834 C9.08419783,4.83684485 8.9774427,4.93923037 8.84716526,4.93923037 Z M12.1558504,13.6148355 C12.1558504,13.740902 12.0498191,13.8432875 11.9191797,13.8432875 L10.2248492,13.8432875 C10.0942099,13.8432875 9.98745476,13.740902 9.98745476,13.6148355 L9.98745476,11.984677 C9.98745476,11.8586105 10.0942099,11.756225 10.2248492,11.756225 L11.9191797,11.756225 C12.0498191,11.756225 12.1558504,11.8582622 12.1558504,11.984677 L12.1558504,13.6148355 Z M12.1558504,10.6581926 C12.1558504,10.7842591 12.0498191,10.8866446 11.9191797,10.8866446 L10.2248492,10.8866446 C10.0942099,10.8866446 9.98745476,10.7846073 9.98745476,10.6581926 L9.98745476,9.02803413 C9.98745476,8.90196761 10.0942099,8.79993035 10.2248492,8.79993035 L11.9191797,8.79993035 C12.0498191,8.79993035 12.1558504,8.90196761 12.1558504,9.02803413 L12.1558504,10.6581926 Z M12.1558504,7.66707296 C12.1558504,7.79313947 12.0498191,7.89552499 11.9191797,7.89552499 L10.2248492,7.89552499 C10.0942099,7.89552499 9.98745476,7.79313947 9.98745476,7.66707296 L9.98745476,6.03726275 C9.98745476,5.91084799 10.0942099,5.80881073 10.2248492,5.80881073 L11.9191797,5.80881073 C12.0498191,5.80881073 12.1558504,5.91084799 12.1558504,6.03726275 L12.1558504,7.66707296 Z M12.1558504,4.71077834 C12.1558504,4.83684485 12.0498191,4.93923037 11.9191797,4.93923037 L10.2248492,4.93923037 C10.0942099,4.93923037 9.98745476,4.8371931 9.98745476,4.71077834 L9.98745476,3.08061989 C9.98745476,2.95455337 10.0942099,2.85216786 10.2248492,2.85216786 L11.9191797,2.85216786 C12.0498191,2.85216786 12.1558504,2.95420512 12.1558504,3.08061989 L12.1558504,4.71077834 Z" id="Shape"></path>
                    </g>
                </g>
            </g>
        </g>
    </g>
</svg>