<?xml version="1.0" encoding="UTF-8"?>
<svg width="16px" height="16px" viewBox="0 0 16 16" version="1.1" xmlns="http://www.w3.org/2000/svg" xmlns:xlink="http://www.w3.org/1999/xlink">
    <!-- Generator: Sketch 44.1 (41455) - http://www.bohemiancoding.com/sketch -->
    <title>Shape</title>
    <desc>Created with Sketch.</desc>
    <defs></defs>
    <g id="Index" stroke="none" stroke-width="1" fill="none" fill-rule="evenodd" fill-opacity="0.5">
        <g id="1440_What-is-Your-Dollar-Worth-Around-the-World" transform="translate(-1216.000000, -3263.000000)" fill-rule="nonzero" fill="#859BA6">
            <g id="Content" transform="translate(110.000000, 356.000000)">
                <g id="10-Countries-Where-Your-Dollar-is-Getting-More-Valuable" transform="translate(45.000000, 1836.000000)">
                    <g id="UK" transform="translate(0.000000, 752.000000)">
                        <g id="Name-of-City/Ranking/Titile">
                            <g id="Table" transform="translate(0.000000, 254.000000)">
                                <g id="Category" transform="translate(2.000000, 65.000000)">
                                    <g id="question" transform="translate(1004.000000, 0.000000)">
                                        <path d="M62.8931297,0.000727043107 C58.4751837,0.0598572617 54.9419399,3.68958312 55.000723,8.10765392 C55.0598538,12.5238117 58.6892722,16.0580596 63.1070443,15.9992772 C67.5241208,15.9397992 71.0580602,12.3100733 70.9992772,7.89235036 C70.9401463,3.47584477 67.310554,-0.0582292631 62.8931297,0.000727043107 Z M62.9494246,12.3010914 L62.9140453,12.3005007 C62.3691477,12.2833722 61.9849893,11.8578162 62.0004504,11.2887349 C62.0156329,10.729399 62.4091236,10.3233342 62.9360529,10.3233342 L62.9676715,10.3239249 C63.5277515,10.3414964 63.9075919,10.7627702 63.8918523,11.3482418 C63.876252,11.9092019 63.48889,12.3010914 62.9494246,12.3010914 Z M65.2036418,6.97748296 C65.0754962,7.17047449 64.793715,7.41012656 64.438668,7.70337919 L64.0476845,7.98954414 C63.8330405,8.16644074 63.703502,8.33285348 63.6548902,8.49660835 C63.6165858,8.62551547 63.5977818,8.65962492 63.5944389,8.92186896 L63.5938817,8.98846359 L62.1009849,8.98846359 L62.1053028,8.85453603 C62.1235497,8.3040598 62.1363642,7.98024156 62.3515654,7.71268176 C62.6892013,7.29244159 63.4339782,6.78404844 63.4655968,6.76249009 C63.572292,6.67729031 63.6622725,6.58027774 63.7292704,6.47662046 C63.8859702,6.24759991 63.955336,6.06730713 63.955336,5.89011521 C63.955336,5.64426142 63.8865274,5.41686512 63.7504423,5.21442335 C63.6196501,5.01906926 63.371159,4.9201371 63.011794,4.9201371 C62.6553541,4.9201371 62.4113202,5.04003697 62.2653456,5.28603842 C62.1151923,5.53897988 62.03928,5.80462011 62.03928,6.07601906 L62.03928,6.14349965 L60.5,6.14349965 L60.5027858,6.07306586 C60.5424831,5.07355577 60.8790047,4.35386126 61.5026004,3.93391641 C61.8944197,3.66650427 62.3819303,3.53095245 62.9507856,3.53095245 C63.6954232,3.53095245 64.3240333,3.7227627 64.8189263,4.10106745 C65.3203658,4.48439264 65.574707,5.05849446 65.574707,5.80742564 C65.574707,6.22633687 65.4499043,6.6198506 65.2036418,6.97748296 Z" id="Shape"></path>
                                    </g>
                                </g>
                            </g>
                        </g>
                    </g>
                </g>
            </g>
        </g>
    </g>
</svg>