<?xml version="1.0" encoding="UTF-8"?>
<svg width="32px" height="32px" viewBox="0 0 32 32" version="1.1" xmlns="http://www.w3.org/2000/svg" xmlns:xlink="http://www.w3.org/1999/xlink">
    <!-- Generator: Sketch 44.1 (41455) - http://www.bohemiancoding.com/sketch -->
    <title>Combined Shape</title>
    <desc>Created with Sketch.</desc>
    <defs></defs>
    <g id="Index" stroke="none" stroke-width="1" fill="none" fill-rule="evenodd">
        <g id="1440_What-is-Your-Dollar-Worth-Around-the-World" transform="translate(-187.000000, -12207.000000)" fill="#FFFFFF">
            <g id="Content" transform="translate(110.000000, 356.000000)">
                <g id="BG_Cards-Copy" transform="translate(0.000000, 6.000000)">
                    <g id="Photo" transform="translate(0.000000, 11656.000000)">
                        <g id="Group-25" transform="translate(45.000000, 69.000000)">
                            <g id="Info-Block" transform="translate(0.000000, 86.000000)">
                                <g id="Info-Icon" transform="translate(32.000000, 34.000000)">
                                    <path d="M16,32 C7.163444,32 0,24.836556 0,16 C0,7.163444 7.163444,0 16,0 C24.836556,0 32,7.163444 32,16 C32,24.836556 24.836556,32 16,32 Z M19.3846154,22.1932896 C19.260862,22.25005 19.0598864,22.3154687 18.7836689,22.3895459 C18.5074511,22.4636229 18.2589542,22.5011423 18.0401581,22.5011423 C17.5748451,22.5011423 17.2471461,22.4270653 17.0570609,22.2779491 C16.8679655,22.1288332 16.7739129,21.8488796 16.7739129,21.4380887 C16.7739129,21.275504 16.8026236,21.0330701 16.8620252,20.7155969 C16.919447,20.3962 16.9857789,20.1123983 17.0590408,19.864192 L17.9579858,16.772197 C18.0460982,16.4883953 18.1064898,16.1766945 18.1391609,15.8361324 C18.1718317,15.4965325 18.1876722,15.2589087 18.1876722,15.1242234 C18.1876722,14.4719605 17.9520457,13.9428386 17.4817826,13.5349338 C17.0115195,13.1270291 16.3412709,12.9230769 15.4730168,12.9230769 C14.9898834,12.9230769 14.4790289,13.0067742 13.938474,13.173207 C13.3979191,13.33964 12.8326133,13.5397442 12.241567,13.7735196 L12,14.730749 C12.176225,14.6672545 12.3861109,14.5989497 12.6316377,14.5287208 C12.8761746,14.4584918 13.1157611,14.4219344 13.3494076,14.4219344 C13.825611,14.4219344 14.1463797,14.5008218 14.3146845,14.656672 C14.4829893,14.8125223 14.5671416,15.0895897 14.5671416,15.4859502 C14.5671416,15.705295 14.5404108,15.9486912 14.4849692,16.2132519 C14.4305176,16.479737 14.3622058,16.7616145 14.2820136,17.0588847 L13.3791085,20.1624244 C13.2989161,20.4885558 13.2405047,20.7810158 13.2038735,21.0398044 C13.1672425,21.298593 13.1494221,21.5525714 13.1494221,21.7998155 C13.1494221,22.4376478 13.3919788,22.9638835 13.8770922,23.3785223 C14.3622058,23.7921995 15.0423548,24 15.9165491,24 C16.4858148,24 16.9857789,23.927847 17.4154507,23.7825792 C17.8451225,23.6373112 18.4223086,23.4266244 19.1440386,23.1495571 L19.3846154,22.1932896 Z M20,9.85025144 C20,9.34125012 19.7607624,8.90509335 19.2800197,8.54269163 C18.8004108,8.18120063 18.2221592,8 17.5463983,8 C16.8683695,8 16.2878501,8.18029013 15.8037061,8.54269163 C15.3195619,8.90509335 15.0769231,9.34125012 15.0769231,9.85025144 C15.0769231,10.3601633 15.3195619,10.7954093 15.8037061,11.1532581 C16.2889841,11.5129281 16.8683695,11.6923077 17.5463983,11.6923077 C18.2221592,11.6923077 18.8004108,11.5129281 19.2800197,11.1532581 C19.7607624,10.7954093 20,10.3601633 20,9.85025144 Z" id="Combined-Shape"></path>
                                </g>
                            </g>
                        </g>
                    </g>
                </g>
            </g>
        </g>
    </g>
</svg>