<?xml version="1.0" encoding="UTF-8"?>
<svg width="86px" height="90px" viewBox="0 0 86 90" version="1.1" xmlns="http://www.w3.org/2000/svg" xmlns:xlink="http://www.w3.org/1999/xlink">
    <defs>
        <linearGradient x1="50%" y1="0%" x2="50%" y2="100%" id="linearGradient-1">
            <stop stop-color="#3DC4F7" offset="0%"></stop>
            <stop stop-color="#229FEF" offset="100%"></stop>
        </linearGradient>
    </defs>
    <g id="Page-1" stroke="none" stroke-width="1" fill="none" fill-rule="evenodd">
        <g id="What-is-Your-Dollar-Worth-Around-the-World" transform="translate(-160.000000, -1515.000000)">
            <g id="Content" transform="translate(110.000000, 356.000000)">
                <g id="Key-Findings" transform="translate(45.000000, 1081.000000)">
                    <g id="key_findings" transform="translate(0.000000, 74.000000)">
                        <rect id="baseline" x="0" y="0" width="96" height="96"></rect>
                        <g id="Page-1" transform="translate(5.000000, 3.000000)">
                            <polygon id="Fill-1" fill="#E6F7FF" points="52.7339919 25.26736 32.5429378 25.26736 12.3518838 25.26736 2.25753243 42.74431 42.6349378 88.64216 83.0170459 42.74431 72.9250459 25.26736"></polygon>
                            <polygon id="Fill-2" fill="#FFFFFF" points="22.4488216 42.743605 12.3521189 25.269005 3.12306486 42.868155"></polygon>
                            <polygon id="Fill-3" fill="#FFFFFF" points="42.3266757 42.20193 32.5427027 25.26783 22.7751892 42.17373"></polygon>
                            <polygon id="Fill-4" fill="#FFFFFF" points="62.9847081 42.743605 52.5000324 25.861205 43.5837081 42.868155"></polygon>
                            <polygon id="Fill-4" fill="#FFFFFF" points="83.9847081 42.743605 73.5000324 25.861205 64.5837081 42.868155"></polygon>
                            <polygon id="Fill-5" fill="#FFFFFF" points="42.6358784 42.743605 42.6358784 85.586455 62.3637162 42.743605"></polygon>
                            <polygon id="Fill-5" fill="#FFFFFF" transform="translate(33.499797, 64.165030) scale(-1, 1) translate(-33.499797, -64.165030) " points="23.6358784 42.743605 23.6358784 85.586455 43.3637162 42.743605"></polygon>
                            <polygon id="Fill-6" fill="#CCEFFF" points="3.12306486 42.743605 3.12306486 43.168955 41.7157946 86.552305 21.5529568 42.743605"></polygon>
                            <polygon id="Fill-7" fill="#CCEFFF" points="81.4155405 42.743605 81.4155405 43.168955 42.8228108 86.552305 62.9856486 42.743605"></polygon>
                            <path d="M48.4600183,78.7370927 L78.5779433,44.505165 L63.514805,44.505165 L48.4600183,78.7370927 Z M59.663119,44.505165 L44.3982162,44.505165 L44.3982162,79.2130825 L59.663119,44.505165 Z M41.1923169,89.2769141 L41.0205,89.35233 L40.7824227,88.8109842 L6.91113833e-15,42.4533 L11.2347568,23 L56.8157027,23 L56.8157027,26.525 L55.4955425,26.525 L62.8275203,39.2133774 L70.159498,26.525 L66.9852973,26.525 L66.9852973,23 L73.8441892,23 L85.0812973,42.4533 L42.5382973,90.8069 L41.1923169,89.2769141 Z M36.0872684,78.1350322 L21.2972607,44.505165 L6.5008684,44.505165 L36.0872684,78.1350322 Z M25.1488675,44.505165 L40.8711892,80.2549495 L40.8711892,44.505165 L25.1488675,44.505165 Z M29.7823278,26.525 L15.1139047,26.525 L22.4481162,39.217243 L29.7823278,26.525 Z M25.5005643,40.982515 L39.586487,40.982515 L32.5435257,28.7914575 L25.5005643,40.982515 Z M49.9710305,26.525 L35.3047236,26.525 L42.637877,39.2154119 L49.9710305,26.525 Z M45.6896225,40.982515 L59.7769504,40.982515 L52.7332865,28.79308 L45.6896225,40.982515 Z M73.0197741,28.6234511 L65.8780901,40.982515 L80.1571321,40.982515 L73.0197741,28.6234511 Z M12.2563875,28.624733 L4.93722222,40.982515 L19.3956681,40.982515 L12.2563875,28.624733 Z M59,26.525 L59,23 L65,23 L65,26.525 L59,26.525 Z" id="Combined-Shape" fill="url(#linearGradient-1)"></path>
                            <g id="Group-33" transform="translate(0.000000, 0.662465)" fill="#66CCFF">
                                <path d="M62,16.5 C62,17.327852 61.327852,18 60.5,18 C59.672148,18 59,17.327852 59,16.5 C59,15.672148 59.672148,15 60.5,15 C61.327852,15 62,15.672148 62,16.5" id="Fill-20" opacity="0.400000006"></path>
                                <path d="M21.9754946,71.783965 C21.9754946,73.045915 20.9503054,74.070515 19.6876297,74.070515 C18.4249541,74.070515 17.3997649,73.045915 17.3997649,71.783965 C17.3997649,70.522015 18.4249541,69.497415 19.6876297,69.497415 C20.9503054,69.497415 21.9754946,70.522015 21.9754946,71.783965" id="Fill-22"></path>
                                <path d="M6.24589459,74.556025 C6.24589459,76.280925 4.84684054,77.676825 3.1233,77.676825 C1.39740811,77.676825 0.000705405405,76.280925 0.000705405405,74.556025 C0.000705405405,72.831125 1.39740811,71.435225 3.1233,71.435225 C4.84684054,71.435225 6.24589459,72.831125 6.24589459,74.556025" id="Fill-24" opacity="0.600000024"></path>
                                <path d="M19.7283081,86.3025 C19.7283081,87.67725 18.6114162,88.7935 17.2358757,88.7935 C15.8603351,88.7935 14.7457946,87.67725 14.7457946,86.3025 C14.7457946,84.92775 15.8603351,83.8115 17.2358757,83.8115 C18.6114162,83.8115 19.7283081,84.92775 19.7283081,86.3025" id="Fill-26" opacity="0.200000003"></path>
                                <path d="M73.6781838,11.9051 C73.6781838,13.6441 72.267373,15.0541 70.527373,15.0541 C68.787373,15.0541 67.3789135,13.6441 67.3789135,11.9051 C67.3789135,10.1661 68.787373,8.7561 70.527373,8.7561 C72.267373,8.7561 73.6781838,10.1661 73.6781838,11.9051" id="Fill-28" fill-opacity="0.600000024"></path>
                                <path d="M54.5616973,4.408995 C54.5616973,6.462895 52.8945892,8.129045 50.8371568,8.129045 C48.7820757,8.129045 47.1149676,6.462895 47.1149676,4.408995 C47.1149676,2.352745 48.7820757,0.686595 50.8371568,0.686595 C52.8945892,0.686595 54.5616973,2.352745 54.5616973,4.408995" id="Fill-30"></path>
                            </g>
                        </g>
                    </g>
                </g>
            </g>
        </g>
    </g>
</svg>