<?xml version="1.0" encoding="UTF-8"?>
<svg width="14px" height="14px" viewBox="0 0 14 14" version="1.1" xmlns="http://www.w3.org/2000/svg" xmlns:xlink="http://www.w3.org/1999/xlink">
    <!-- Generator: Sketch 44.1 (41455) - http://www.bohemiancoding.com/sketch -->
    <title>Combined Shape</title>
    <desc>Created with Sketch.</desc>
    <defs></defs>
    <g id="Index" stroke="none" stroke-width="1" fill="none" fill-rule="evenodd" opacity="0.5">
        <g id="1440_What-is-Your-Dollar-Worth-Around-the-World" transform="translate(-764.000000, -3215.000000)" fill-rule="nonzero" fill="#6B81B3">
            <g id="Content" transform="translate(110.000000, 356.000000)">
                <g id="10-Countries-Where-Your-Dollar-is-Getting-More-Valuable" transform="translate(45.000000, 1836.000000)">
                    <g id="UK" transform="translate(0.000000, 752.000000)">
                        <g id="Name-of-City/Ranking/Titile">
                            <g id="Table" transform="translate(0.000000, 254.000000)">
                                <g id="Title" transform="translate(1.000000, 0.000000)">
                                    <g id="Recreation" transform="translate(607.000000, 16.000000)">
                                        <g id="leisure">
                                            <path d="M3.5,3 L5.04299572,4.7201568 L4.39799801,4.7201568 L4.27119175,4.84891631 C3.16482588,5.97203912 2.55555556,7.46529792 2.55555556,9.0535956 C2.55555556,10.6419519 3.16482588,12.1352107 4.27119175,13.2583042 C5.37752877,14.3814563 6.84849872,15 8.41305827,15 C9.97764668,15 11.4486166,14.3814856 12.5549248,13.2583042 C13.6612907,12.1351814 14.270561,10.6419226 14.270561,9.0535956 C14.270561,7.46526862 13.6612907,5.97200982 12.5549248,4.84891631 L12.4281185,4.7201568 L10.6634798,4.7201568 L12.5553288,1.87908031 L15,1.87908031 L15,1 L12.0201394,1 L9.69531949,4.7201568 L6,4.7201568 L4.05235387,2.5581169 L6,1 L1,1 L1,5 L3.5,3 Z" id="Combined-Shape"></path>
                                        </g>
                                    </g>
                                </g>
                            </g>
                        </g>
                    </g>
                </g>
            </g>
        </g>
    </g>
</svg>