<?xml version="1.0" encoding="UTF-8"?>
<svg width="14px" height="16px" viewBox="0 0 14 16" version="1.1" xmlns="http://www.w3.org/2000/svg" xmlns:xlink="http://www.w3.org/1999/xlink">
    <!-- Generator: Sketch 50.2 (55047) - http://www.bohemiancoding.com/sketch -->
    <title>salary</title>
    <desc>Created with Sketch.</desc>
    <defs></defs>
    <g id="Page-1" stroke="none" stroke-width="1" fill="none" fill-rule="evenodd">
        <g id="1440_Dollar_Worth_in_Turkey" transform="translate(-770.000000, -1595.000000)">
            <g id="Tables" transform="translate(155.000000, 536.000000)">
                <g id="Sports-Copy" transform="translate(582.000000, 1039.000000)">
                    <g id="Title" transform="translate(0.000000, 1.000000)">
                        <g id="Recreation" transform="translate(32.000000, 19.000000)">
                            <g id="salary">
                                <rect id="baseline" x="0" y="0" width="16" height="16"></rect>
                                <path d="M13.8266941,6.85189833 C13.7793266,6.05385504 13.6073095,4.57151738 13.2852924,3.84124898 C12.9404548,3.05929227 12.4529676,2.37264292 11.8404206,1.78433123 C11.0939762,1.06739616 10.2349164,0.560608285 9.26465996,0.267690536 C6.71946338,-0.5006731 3.92804457,0.422790104 2.31508731,2.5535953 C1.64329244,3.44107582 1.2279591,4.44195893 1.06954885,5.55110179 C0.918027479,6.61196759 1.01293346,7.64954335 1.36560013,8.65896326 C1.76633517,9.80599357 2.43811295,10.7634308 3.36513859,11.5378377 L3.35647192,15.211604 C3.35544628,15.6427035 3.70014714,15.9926949 4.12570269,15.9926949 L9.337395,15.9926949 C9.76223261,15.9926949 10.1066258,15.6438291 10.1066258,15.2134741 L10.1066258,14.0210239 C10.1421813,14.0207122 12.4249164,14.0210239 12.4249164,14.0210239 C12.7397198,14.0210239 13.0185061,13.815275 13.1149847,13.5117425 C13.2118736,13.2070152 13.331754,12.7576472 13.4151557,12.4346516 C13.4823865,12.1743745 13.5145916,11.9061148 13.5107967,11.6370412 L13.4958907,10.589197 C13.495754,10.5310498 13.5079762,10.4980282 13.56813,10.4756732 C13.7417369,10.4111018 14.3011044,10.2102014 14.7071899,10.0647468 C14.9437198,9.97998491 15.054848,9.70580309 14.9452924,9.47714508 C14.3985403,8.3362966 13.8266941,6.85189833 13.8266941,6.85189833 Z M7.84072833,8.90801954 L7.84072833,9.54931824 C7.84072833,9.75664292 7.67484799,9.92466023 7.47019842,9.92466023 L7.1508309,9.92466023 C6.94619842,9.92466023 6.78031808,9.75664292 6.78031808,9.54931824 L6.78031808,8.96557798 C6.33903603,8.91068621 5.80913859,8.74677279 5.37178816,8.45291997 C5.21223261,8.34569919 5.16628389,8.12363859 5.26924115,7.96015807 L5.59889927,7.43667755 C5.70296765,7.2714308 5.91917278,7.22007149 6.08354885,7.32351738 C6.4625403,7.56201088 6.78238645,7.66128361 7.1022497,7.66128361 C7.57561722,7.66128361 7.76500184,7.49825331 7.76500184,7.12421002 C7.76500184,6.35695461 5.32233517,6.25144811 5.32233517,4.57307582 C5.32233517,3.60443513 5.8619762,2.93307582 6.78036936,2.73167322 L6.78036936,2.09375114 C6.78036936,1.89520569 6.93925825,1.73423599 7.13525825,1.73423599 L7.48585654,1.73423599 C7.68185654,1.73423599 7.84074543,1.89518837 7.84074543,2.09375114 L7.84074543,2.71248707 C8.30518987,2.78715374 8.68351466,2.98975114 9.00703603,3.26594162 C9.15905312,3.39572517 9.1782668,3.62571651 9.04799329,3.77785504 L8.69064286,4.19524032 C8.57124115,4.33470352 8.36640355,4.36265158 8.21729244,4.25659097 C7.97448902,4.08395028 7.74371979,3.99764725 7.48100184,3.99764725 C7.07390782,3.99764725 6.87508731,4.1127295 6.87508731,4.49636586 C6.87508731,5.22524898 9.31775397,5.26362127 9.31775397,7.00912777 C9.3176856,7.93937885 8.83484799,8.66826197 7.84072833,8.90801954 Z" id="Shape" fill-opacity="0.5" fill="#6B81B3" fill-rule="nonzero"></path>
                            </g>
                        </g>
                    </g>
                </g>
            </g>
        </g>
    </g>
</svg>