<?xml version="1.0" encoding="UTF-8"?>
<svg width="16px" height="16px" viewBox="0 0 16 16" version="1.1" xmlns="http://www.w3.org/2000/svg" xmlns:xlink="http://www.w3.org/1999/xlink">
    <!-- Generator: Sketch 44.1 (41455) - http://www.bohemiancoding.com/sketch -->
    <title>Shape</title>
    <desc>Created with Sketch.</desc>
    <defs></defs>
    <g id="Index" stroke="none" stroke-width="1" fill="none" fill-rule="evenodd" fill-opacity="0.5">
        <g id="1440_What-is-Your-Dollar-Worth-Around-the-World" transform="translate(-958.000000, -3214.000000)" fill-rule="nonzero" fill="#6B81B3">
            <g id="Content" transform="translate(110.000000, 356.000000)">
                <g id="10-Countries-Where-Your-Dollar-is-Getting-More-Valuable" transform="translate(45.000000, 1836.000000)">
                    <g id="UK" transform="translate(0.000000, 752.000000)">
                        <g id="Name-of-City/Ranking/Titile">
                            <g id="Table" transform="translate(0.000000, 254.000000)">
                                <g id="Title" transform="translate(1.000000, 0.000000)">
                                    <g id="Shopping" transform="translate(802.000000, 16.000000)">
                                        <g id="shopping">
                                            <path d="M15.8293463,4.78322464 C15.6613067,4.51902844 15.3844931,4.33332024 15.0693737,4.27410385 L3.18481764,2.02843618 L3.12844306,1.69941731 C3.07170711,1.37180001 2.87042095,1.08763143 2.5748158,0.919793261 C2.2694535,0.746348808 1.64861039,0.386845762 1.16545135,0.106881888 C0.797932468,-0.106156954 0.322362312,0.00912228802 0.102646008,0.365121406 L0.0965026248,0.373881227 C0.00435187262,0.523849359 -0.0234740408,0.702900097 0.0202523946,0.872490228 C0.0639788299,1.04137957 0.175643859,1.18714299 0.329951197,1.27719395 C0.768299677,1.53192954 1.35264386,1.86970823 1.7075146,2.07293607 L3.05725209,9.90877099 C3.14072983,10.3916123 3.53065399,10.7553201 4.01525853,10.8271506 L4.01525853,12.6064454 C3.47030428,12.9274052 3.10495365,13.5083566 3.10495365,14.1709494 C3.10495365,15.17938 3.95129507,16 4.99097238,16 C6.03101106,16 6.87735248,15.1797304 6.87735248,14.1709494 C6.87735248,13.7256001 6.71220388,13.3173925 6.43864263,13.000287 L11.3085388,13.000287 C11.035339,13.3173925 10.8701904,13.7256001 10.8701904,14.1709494 C10.8701904,15.17938 11.7168932,16 12.7569318,16 C13.7966092,16 14.6429506,15.1797304 14.6429506,14.1709494 C14.6429506,13.3023256 14.0145186,12.5728077 13.1750433,12.3881507 L13.1750433,10.8201428 L13.5946003,10.819442 C14.1066693,10.8187412 14.5609183,10.484116 14.7000479,10.0058298 L15.9572733,5.66936811 C16.0440034,5.37083342 15.9973859,5.04812162 15.8293463,4.78322464 Z M12.7395858,9.40175256 L11.1040003,9.40525649 L11.1040003,4.97173598 L12.7395858,5.28288481 L12.7395858,9.40175256 Z M5.59663772,9.41752024 L5.59663772,3.9342228 L7.25968776,4.24572203 L7.25968776,9.41436671 L5.59663772,9.41752024 Z M8.35031902,4.4524538 L10.0133691,4.76395303 L10.0133691,9.40735885 L8.35031902,9.41121317 L8.35031902,4.4524538 Z M4.50636784,3.72608946 L4.50636784,9.4196226 L4.45649802,9.4196226 L3.43922599,3.52496397 L4.50636784,3.72608946 Z M4.99097238,14.5798578 C4.75860793,14.5798578 4.56960855,14.3966024 4.56960855,14.1712998 C4.56960855,13.9456468 4.75860793,13.7627418 4.99097238,13.7627418 C5.22333683,13.7627418 5.41233621,13.9456468 5.41233621,14.1712998 C5.41233621,14.3966024 5.22333683,14.5798578 4.99097238,14.5798578 Z M12.7569318,14.5798578 C12.5245674,14.5798578 12.335568,14.3966024 12.335568,14.1712998 C12.335568,13.9456468 12.524206,13.7627418 12.7569318,13.7627418 C12.9892963,13.7627418 13.1782957,13.9456468 13.1782957,14.1712998 C13.1782957,14.3966024 12.9892963,14.5798578 12.7569318,14.5798578 Z M11.7035223,11.5731369 L5.48714094,11.5731369 L5.48714094,10.8376624 L11.7035223,10.8236467 L11.7035223,11.5731369 Z M13.8573202,7.69288672 L13.8573202,5.49031737 L14.4626242,5.60489583 L13.8573202,7.69288672 Z" id="Shape"></path>
                                        </g>
                                    </g>
                                </g>
                            </g>
                        </g>
                    </g>
                </g>
            </g>
        </g>
    </g>
</svg>