<?xml version="1.0" encoding="UTF-8"?>
<svg width="14px" height="12px" viewBox="0 0 14 12" version="1.1" xmlns="http://www.w3.org/2000/svg" xmlns:xlink="http://www.w3.org/1999/xlink">
    <!-- Generator: Sketch 44.1 (41455) - http://www.bohemiancoding.com/sketch -->
    <title>Shape</title>
    <desc>Created with Sketch.</desc>
    <defs></defs>
    <g id="Index" stroke="none" stroke-width="1" fill="none" fill-rule="evenodd" fill-opacity="0.5">
        <g id="1440_What-is-Your-Dollar-Worth-Around-the-World" transform="translate(-568.000000, -3216.000000)" fill-rule="nonzero" fill="#6B81B3">
            <g id="Content" transform="translate(110.000000, 356.000000)">
                <g id="10-Countries-Where-Your-Dollar-is-Getting-More-Valuable" transform="translate(45.000000, 1836.000000)">
                    <g id="UK" transform="translate(0.000000, 752.000000)">
                        <g id="Name-of-City/Ranking/Titile">
                            <g id="Table" transform="translate(0.000000, 254.000000)">
                                <g id="Title" transform="translate(1.000000, 0.000000)">
                                    <g id="Local-Transit" transform="translate(411.000000, 16.000000)">
                                        <g id="transit">
                                            <path d="M14.3508934,7.16454414 C14.2727285,6.82274306 13.9991205,6.5949253 13.647409,6.5949253 L13.4519966,6.5949253 L13.2956668,5.03796714 C13.1393062,3.29113604 11.6541725,2 9.85640961,2 L6.06541025,2 C4.26761673,2 2.78248296,3.32911063 2.62615309,5.03796714 L2.50890569,6.5949253 L2.31349335,6.5949253 C1.96175114,6.5949253 1.68817386,6.82274306 1.61000893,7.16454414 L1.02377191,10.4303588 C0.945606978,10.8480793 1.06285438,11.2278252 1.33643166,11.5695965 C1.61000893,11.8733932 2.00083361,12.0632662 2.39165828,12.0632662 L2.39165828,12.5949402 C2.39165828,13.354432 3.01697777,14 3.79862712,14 L4.22853427,14 C5.01018362,14 5.6355031,13.3924066 5.6355031,12.5949402 L5.6355031,12.0632662 L10.2863168,12.0632662 L10.2863168,12.5949402 C10.2863168,13.354432 10.9116362,14 11.7323987,14 L12.1622752,14 C12.9439246,14 13.6083265,13.3924066 13.6083265,12.5949402 L13.6083265,12.0632662 C13.9991512,12.0632662 14.3899759,11.8733932 14.6635838,11.5695965 C14.9371611,11.2658296 15.0544085,10.8480793 14.9762129,10.4303588 L14.3508934,7.16454414 Z M3.60321478,10.8101047 C2.93881283,10.8101047 2.39165828,10.2784605 2.39165828,9.63292223 C2.39165828,8.987384 2.93881283,8.45568018 3.60321478,8.45568018 C4.26761673,8.45568018 4.81477128,8.98735421 4.81477128,9.63289245 C4.81477128,10.2784307 4.26761673,10.8101047 3.60321478,10.8101047 Z M4.11128686,6.5949253 L4.26761673,5.1898655 C4.34578167,4.24050077 5.16651349,3.55695816 6.10449271,3.55695816 L9.89549208,3.55695816 C10.8725538,3.55695816 11.6542031,4.27847536 11.7323987,5.1898655 L11.8887286,6.5949253 L4.11128686,6.5949253 Z M12.3576875,10.8101047 C11.6932856,10.8101047 11.1461617,10.2784605 11.1461617,9.63292223 C11.1461617,8.987384 11.6933162,8.45570996 12.3576875,8.45570996 C13.0220588,8.45570996 13.569244,8.987384 13.569244,9.63292223 C13.569244,10.2784605 13.0220895,10.8101047 12.3576875,10.8101047 Z" id="Shape"></path>
                                        </g>
                                    </g>
                                </g>
                            </g>
                        </g>
                    </g>
                </g>
            </g>
        </g>
    </g>
</svg>