<?xml version="1.0" encoding="UTF-8"?>
<svg width="88px" height="88px" viewBox="0 0 88 88" version="1.1" xmlns="http://www.w3.org/2000/svg" xmlns:xlink="http://www.w3.org/1999/xlink">
    <!-- Generator: Sketch 50.2 (55047) - http://www.bohemiancoding.com/sketch -->
    <title>icon_cards</title>
    <desc>Created with Sketch.</desc>
    <defs>
        <linearGradient x1="50%" y1="0%" x2="50%" y2="306.200912%" id="linearGradient-1">
            <stop stop-color="#3DC4F7" offset="0%"></stop>
            <stop stop-color="#229FEF" offset="100%"></stop>
        </linearGradient>
        <linearGradient x1="50%" y1="-540.274212%" x2="50%" y2="1997.64877%" id="linearGradient-2">
            <stop stop-color="#3DC4F7" offset="0%"></stop>
            <stop stop-color="#229FEF" offset="100%"></stop>
        </linearGradient>
        <linearGradient x1="50%" y1="-87.2526367%" x2="50%" y2="100%" id="linearGradient-3">
            <stop stop-color="#3DC4F7" offset="0%"></stop>
            <stop stop-color="#229FEF" offset="100%"></stop>
        </linearGradient>
        <linearGradient x1="50%" y1="-527.288353%" x2="50%" y2="261.247029%" id="linearGradient-4">
            <stop stop-color="#3DC4F7" offset="0%"></stop>
            <stop stop-color="#229FEF" offset="100%"></stop>
        </linearGradient>
        <linearGradient x1="50%" y1="0%" x2="50%" y2="100%" id="linearGradient-5">
            <stop stop-color="#3DC4F7" offset="0%"></stop>
            <stop stop-color="#229FEF" offset="100%"></stop>
        </linearGradient>
        <linearGradient x1="50%" y1="-152.177523%" x2="50%" y2="403.344118%" id="linearGradient-6">
            <stop stop-color="#3DC4F7" offset="0%"></stop>
            <stop stop-color="#229FEF" offset="100%"></stop>
        </linearGradient>
    </defs>
    <g id="Page-1" stroke="none" stroke-width="1" fill="none" fill-rule="evenodd">
        <g id="1440_X-Rates2" transform="translate(-159.000000, -7322.000000)">
            <g id="Content" transform="translate(110.000000, 92.000000)">
                <g id="Block-with-Credit-Cards" transform="translate(45.000000, 7139.000000)">
                    <g id="Header" transform="translate(0.000000, 87.000000)">
                        <g id="icon_cards">
                            <rect id="baseline" x="0" y="0" width="96" height="96"></rect>
                            <g id="Group-8" transform="translate(4.000000, 4.000000)">
                                <g id="Group-7" transform="translate(1.000000, 7.000000)" fill="#E6F7FF">
                                    <rect id="Rectangle-2" x="0" y="0" width="36" height="7"></rect>
                                    <circle id="Oval-2" cx="73" cy="25" r="6"></circle>
                                    <circle id="Oval-2" cx="27.5" cy="57.5" r="3.5"></circle>
                                </g>
                                <g id="Group">
                                    <g id="Group-5">
                                        <path d="M73.6809,3.5507 C73.6809,1.5897 75.2569,-0.0003 77.2019,-0.0003 C79.1479,-0.0003 80.7249,1.5897 80.7249,3.5507 C80.7249,5.5117 79.1479,7.1017 77.2019,7.1017 C75.2569,7.1017 73.6809,5.5117 73.6809,3.5507" id="Fill-1" fill="#A3E0FF"></path>
                                        <path d="M54.803,2.3417 C56.232,2.3417 57.386,3.5057 57.386,4.9437 C57.386,6.3817 56.232,7.5477 54.803,7.5477 C53.379,7.5477 52.222,6.3817 52.222,4.9437 C52.222,3.5057 53.379,2.3417 54.803,2.3417" id="Fill-3" fill="#C2EBFF"></path>
                                        <path d="M0.7678,53.2684 C0.7678,51.3004 2.3508,49.7054 4.3018,49.7054 C6.2538,49.7054 7.8368,51.3004 7.8368,53.2684 C7.8368,55.2364 6.2538,56.8314 4.3018,56.8314 C2.3508,56.8314 0.7678,55.2364 0.7678,53.2684" id="Fill-5" fill="#75D1FF"></path>
                                        <path d="M66.0627,13.5526 C66.0627,14.1206 65.6077,14.5806 65.0427,14.5806 C64.4797,14.5806 64.0227,14.1206 64.0227,13.5526 C64.0227,12.9856 64.4797,12.5256 65.0427,12.5256 C65.6077,12.5256 66.0627,12.9856 66.0627,13.5526" id="Fill-7" fill="#66CCFF"></path>
                                        <path d="M15.011,41.5223 C15.011,42.3723 14.328,43.0603 13.485,43.0603 C12.642,43.0603 11.959,42.3723 11.959,41.5223 C11.959,40.6713 12.642,39.9833 13.485,39.9833 C14.328,39.9833 15.011,40.6713 15.011,41.5223" id="Fill-9" fill="#A3E0FF"></path>
                                        <path d="M34.1877,6.3387 L3.4287,6.3387 L3.4287,4.9437 C3.4287,4.1757 4.0537,3.5507 4.8227,3.5507 L32.7937,3.5507 C33.5627,3.5507 34.1877,4.1757 34.1877,4.9437 L34.1877,6.3387 Z M3.4287,15.9827 L34.1877,15.9827 L34.1877,23.5917 C34.1877,24.3597 33.5627,24.9857 32.7937,24.9857 L4.8227,24.9857 C4.0537,24.9857 3.4287,24.3597 3.4287,23.5917 L3.4287,15.9827 Z M3.4287,12.5547 L34.1877,12.5547 L34.1877,9.7667 L3.4287,9.7667 L3.4287,12.5547 Z M32.7937,0.1227 L4.8227,0.1227 C2.1637,0.1227 -0.0003,2.2857 -0.0003,4.9437 L-0.0003,23.5917 C-0.0003,26.2507 2.1637,28.4137 4.8227,28.4137 L32.7937,28.4137 C35.4527,28.4137 37.6157,26.2507 37.6157,23.5917 L37.6157,4.9437 C37.6157,2.2857 35.4527,0.1227 32.7937,0.1227 Z" id="Fill-11" fill="url(#linearGradient-1)"></path>
                                        <polygon id="Fill-14" fill="url(#linearGradient-2)" points="6.216 22.1986 12.752 22.1986 12.752 18.7706 6.216 18.7706"></polygon>
                                        <polygon id="Fill-16" fill="url(#linearGradient-2)" points="15.541 22.1986 20.523 22.1986 20.523 18.7706 15.541 18.7706"></polygon>
                                        <path d="M39.4397,71.3739 C38.5077,71.3739 37.7627,72.1189 37.7627,73.0339 C37.7627,73.9489 38.5077,74.6939 39.4227,74.6939 L39.4397,74.6939 C40.3547,74.6939 41.0997,73.9489 41.0997,73.0339 C41.0997,72.1189 40.3547,71.3739 39.4397,71.3739" id="Fill-17" fill="#27A7F0"></path>
                                        <path d="M80.7922,51.0985 C79.8772,51.0985 79.1322,51.8435 79.1322,52.7585 L79.1322,72.1235 L61.7682,83.2065 L61.7682,60.6495 C61.7682,59.7345 61.0222,58.9895 60.1072,58.9895 C59.1922,58.9895 58.4472,59.7345 58.4472,60.6495 L58.4472,83.1965 L44.6142,74.3675 C44.3472,74.1965 44.0382,74.1065 43.7222,74.1065 C43.1512,74.1065 42.6282,74.3935 42.3212,74.8735 C41.8292,75.6455 42.0562,76.6745 42.8282,77.1665 L59.2142,87.6255 C59.4812,87.7965 59.7902,87.8865 60.1072,87.8865 L60.1242,87.8865 C60.4412,87.8865 60.7512,87.7965 61.0182,87.6255 L81.6852,74.4335 C82.1652,74.1265 82.4522,73.6035 82.4522,73.0345 L82.4522,52.7585 C82.4522,51.8435 81.7072,51.0985 80.7922,51.0985" id="Fill-18" fill="url(#linearGradient-3)"></path>
                                        <path d="M61.2825,56.4764 C61.5915,56.1684 61.7675,55.7414 61.7675,55.3044 C61.7675,54.8674 61.5915,54.4394 61.2815,54.1304 C60.9725,53.8214 60.5455,53.6434 60.1075,53.6434 C59.6705,53.6434 59.2425,53.8214 58.9325,54.1304 C58.6245,54.4394 58.4475,54.8674 58.4475,55.3044 C58.4475,55.7414 58.6245,56.1684 58.9335,56.4774 C59.2405,56.7874 59.6695,56.9644 60.1075,56.9644 C60.5465,56.9644 60.9745,56.7874 61.2825,56.4764" id="Fill-19" fill="#2EB0F2"></path>
                                        <path d="M28.5959,66.2928 C27.4099,66.2928 26.4469,65.3288 26.4469,64.1448 C26.4469,62.9588 27.4099,61.9948 28.5959,61.9948 C29.7809,61.9948 30.7439,62.9588 30.7439,64.1448 C30.7439,65.3288 29.7809,66.2928 28.5959,66.2928 M28.5959,58.6748 C25.5789,58.6748 23.1259,61.1278 23.1259,64.1448 C23.1259,67.1598 25.5789,69.6128 28.5959,69.6128 C31.6119,69.6128 34.0649,67.1598 34.0649,64.1448 C34.0649,61.1278 31.6119,58.6748 28.5959,58.6748" id="Fill-20" fill="url(#linearGradient-4)"></path>
                                        <path d="M34.7975,69.3413 L28.5955,77.2833 L22.2965,69.2083 C21.0685,67.7003 20.4165,65.8683 20.4155,63.9933 C20.4185,59.4733 24.0885,55.8063 28.5955,55.8063 C33.1055,55.8063 36.7755,59.4763 36.7755,63.9873 C36.7755,65.8843 36.1115,67.7333 34.9055,69.1923 C34.8655,69.2413 34.8295,69.2913 34.7975,69.3413 Z M59.2685,31.6713 C59.2685,34.8773 60.3785,38.0123 62.3915,40.4993 L65.4855,44.4643 L60.1155,47.8923 L40.3325,35.2643 C40.0665,35.0933 39.7575,35.0043 39.4395,35.0043 C39.1055,35.0043 38.7975,35.0933 38.5295,35.2643 L17.8615,48.4573 C17.3815,48.7633 17.0945,49.2873 17.0945,49.8563 L17.0945,86.2263 C17.0945,86.8333 17.4255,87.3903 17.9565,87.6823 C18.2025,87.8163 18.4785,87.8863 18.7555,87.8863 C19.0735,87.8863 19.3825,87.7963 19.6495,87.6263 L24.5625,84.5 C24.9365,84.261 25.1955,83.891 25.2915,83.458 C25.3875,83.024 25.3085,82.58 25.0695,82.207 C24.7635,81.726 24.2395,81.439 23.6685,81.439 C23.3515,81.439 23.0435,81.529 22.7765,81.7 L20.4155,83.1963 L20.4155,72.1963 L27.2875,81.0043 C27.6025,81.4103 28.0805,81.6423 28.5955,81.6423 C29.1105,81.6423 29.5875,81.4103 29.9045,81.0043 L37.5005,71.2723 C39.1905,69.1743 40.0965,66.6083 40.0965,63.9873 C40.0965,57.6453 34.9375,52.4863 28.5955,52.4863 C25.5135,52.4863 22.5745,53.7263 20.4155,55.9143 L20.4155,50.7663 L37.7795,39.6833 L37.7795,52.6453 C37.7795,53.5613 38.5245,54.3063 39.4395,54.3063 C40.3545,54.3063 41.0995,53.5613 41.0995,52.6453 L41.0995,39.6943 L59.2155,51.2553 C59.4805,51.4263 59.7905,51.5163 60.1075,51.5163 C60.4415,51.5163 60.7505,51.4263 61.0175,51.2553 L67.5375,47.0943 L72.0015,52.8153 C72.3185,53.2213 72.7955,53.4543 73.3095,53.4543 C73.8245,53.4543 74.3015,53.2213 74.6185,52.8153 L78.5615,47.7633 C79.1255,47.0423 78.9965,45.9963 78.2745,45.4323 C77.9805,45.2033 77.6275,45.0813 77.2545,45.0813 C76.7385,45.0813 76.2605,45.3133 75.9445,45.7193 L73.3095,49.0953 L65.0435,38.5003 C63.4435,36.5333 62.5895,34.1293 62.5895,31.6713 C62.5895,25.7593 67.3985,20.9513 73.3095,20.9513 C79.2205,20.9513 84.0295,25.7593 84.0295,31.6713 C84.0295,34.1573 83.1595,36.5813 81.5785,38.4933 C81.1715,38.9863 81.0835,39.6783 81.3555,40.2583 C81.6285,40.8373 82.2185,41.2113 82.8585,41.2113 C83.3845,41.2113 83.8845,40.9593 84.1975,40.5373 C86.2275,38.0513 87.3495,34.8993 87.3495,31.6713 C87.3495,23.9283 81.0515,17.6303 73.3095,17.6303 C65.5675,17.6303 59.2685,23.9283 59.2685,31.6713 Z" id="Fill-21" fill="url(#linearGradient-5)"></path>
                                        <path d="M79.8401,45.0878 C80.2781,45.0878 80.7061,44.9108 81.0151,44.6018 C81.3231,44.2928 81.5001,43.8648 81.5001,43.4278 C81.5001,42.9898 81.3231,42.5628 81.0141,42.2538 C80.7051,41.9438 80.2771,41.7678 79.8401,41.7678 C79.4031,41.7678 78.9751,41.9438 78.6661,42.2538 C78.3571,42.5628 78.1801,42.9898 78.1801,43.4278 C78.1801,43.8648 78.3571,44.2928 78.6661,44.6018 C78.9741,44.9108 79.4021,45.0878 79.8401,45.0878" id="Fill-22" fill="#33B7F4"></path>
                                        <path d="M73.3098,36.7382 C70.6238,36.7382 68.4398,34.5532 68.4398,31.8692 C68.4398,29.1832 70.6238,26.9992 73.3098,26.9992 C75.9958,26.9992 78.1798,29.1832 78.1798,31.8692 C78.1798,34.5532 75.9958,36.7382 73.3098,36.7382 M81.4998,31.8692 C81.4998,27.3522 77.8268,23.6782 73.3098,23.6782 C68.7928,23.6782 65.1198,27.3522 65.1198,31.8692 C65.1198,36.3852 68.7928,40.0592 73.3098,40.0592 C77.8268,40.0592 81.4998,36.3852 81.4998,31.8692" id="Fill-23" fill="url(#linearGradient-6)"></path>
                                    </g>
                                </g>
                            </g>
                        </g>
                    </g>
                </g>
            </g>
        </g>
    </g>
</svg>